<?xml version="1.0" encoding="UTF-8" standalone="no"?>
<svg
   xmlns:dc="http://purl.org/dc/elements/1.1/"
   xmlns:cc="http://web.resource.org/cc/"
   xmlns:rdf="http://www.w3.org/1999/02/22-rdf-syntax-ns#"
   xmlns:svg="http://www.w3.org/2000/svg"
   xmlns="http://www.w3.org/2000/svg"
   xmlns:sodipodi="http://inkscape.sourceforge.net/DTD/sodipodi-0.dtd"
   xmlns:inkscape="http://www.inkscape.org/namespaces/inkscape"
   version="1.0"
   width="320"
   height="195"
   id="svg2"
   sodipodi:version="0.32"
   inkscape:version="0.43"
   sodipodi:docname="a flat.svg"
   sodipodi:docbase="C:\program files\LilyPond">
  <metadata
     id="metadata105">
    <rdf:RDF>
      <cc:Work
         rdf:about="">
        <dc:format>image/svg+xml</dc:format>
        <dc:type
           rdf:resource="http://purl.org/dc/dcmitype/StillImage" />
      </cc:Work>
    </rdf:RDF>
  </metadata>
  <defs
     id="defs103" />
  <sodipodi:namedview
     inkscape:window-height="792"
     inkscape:window-width="1152"
     inkscape:pageshadow="2"
     inkscape:pageopacity="0.0"
     borderopacity="1.0"
     bordercolor="#666666"
     pagecolor="#ffffff"
     id="base"
     inkscape:zoom="1"
     inkscape:cx="50.074591"
     inkscape:cy="274.35035"
     inkscape:window-x="-4"
     inkscape:window-y="-4"
     inkscape:current-layer="g6" />
  <g
     transform="scale(1.757299,1.757299)"
     id="g4">
<!-- Page: 1/1 !-->    <g
       id="g6">
      <g
         id="g1432"
         transform="matrix(14.12875,0,0,14.11233,-282.6882,-125.4035)">
        <g
           id="g8"
           transform="translate(20.00798,5)">
          <text
             id="text10"
             style="font-size:2.19953132px;fill:currentColor;font-family:Century Schoolbook L">
            <tspan
               id="tspan12" />
          </text>
        </g>
        <g
           id="g14"
           transform="translate(20.00798,15)">
          <line
             id="line16"
             y2="0"
             x2="12.838449"
             y1="0"
             x1="0.050000001"
             style="stroke:currentColor;stroke-width:0.1;stroke-linecap:round;stroke-linejoin:round" />
        </g>
        <g
           id="g18"
           transform="translate(20.00798,14)">
          <line
             id="line20"
             y2="0"
             x2="12.838449"
             y1="0"
             x1="0.050000001"
             style="stroke:currentColor;stroke-width:0.1;stroke-linecap:round;stroke-linejoin:round" />
        </g>
        <g
           id="g22"
           transform="translate(20.00798,13)">
          <line
             id="line24"
             y2="0"
             x2="12.838449"
             y1="0"
             x1="0.050000001"
             style="stroke:currentColor;stroke-width:0.1;stroke-linecap:round;stroke-linejoin:round" />
        </g>
        <g
           id="g26"
           transform="translate(20.00798,12)">
          <line
             id="line28"
             y2="0"
             x2="12.838449"
             y1="0"
             x1="0.050000001"
             style="stroke:currentColor;stroke-width:0.1;stroke-linecap:round;stroke-linejoin:round" />
        </g>
        <g
           id="g30"
           transform="translate(20.00798,11)">
          <line
             id="line32"
             y2="0"
             x2="12.838449"
             y1="0"
             x1="0.050000001"
             style="stroke:currentColor;stroke-width:0.1;stroke-linecap:round;stroke-linejoin:round" />
        </g>
        <path
           id="text36"
           d="M 26.58398,12.944 C 26.29198,12.976 25.991979,13.184 25.86798,13.436 C 25.82798,13.52 25.81198,13.58 25.80798,13.656 C 25.80398,13.78 25.85198,13.892 25.94798,13.964 C 25.97998,13.992 26.05198,14.024 26.09598,14.036 C 26.431979,14.136 26.89598,13.904 27.06398,13.56 C 27.10398,13.48 27.11998,13.42 27.12398,13.344 C 27.12798,13.22 27.079979,13.108 26.98398,13.036 C 26.95198,13.008 26.87998,12.976 26.83598,12.964 C 26.76398,12.944 26.66398,12.936 26.58398,12.944"
           style="font-size:4px;font-family:Emmentaler" />
        <g
           id="g40"
           transform="translate(27.05916,13)">
          <rect
             id="rect42"
             ry="0.0028344006"
             height="3.312186"
             width="0.13"
             y="-3"
             x="-0.064999998"
             rx="0.002831107" />
        </g>
        <path
           id="text46"
           d="M 24.59797,11.676 C 24.58197,11.68 24.56197,11.688 24.55397,11.692 L 24.53797,11.7 L 24.53797,11.788 C 24.54197,11.836 24.55397,12.368001 24.56597,12.972 C 24.58597,13.879999 24.58997,14.076 24.59797,14.096 C 24.60197,14.12 24.62197,14.148 24.64597,14.16 C 24.66597,14.172 24.66997,14.172 24.69797,14.172 C 24.72197,14.172 24.72997,14.172 24.74997,14.164 C 24.77397,14.148 24.78997,14.132 24.83797,14.068 C 24.88197,14.008 24.917971,13.98 25.05797,13.872 C 25.19397,13.764 25.23397,13.732 25.29397,13.676 C 25.40197,13.564 25.44997,13.464 25.45797,13.344 C 25.46197,13.244 25.43397,13.132 25.37797,13.052 C 25.35397,13.02 25.30597,12.968 25.27797,12.952 C 25.21797,12.92 25.16997,12.908 25.10197,12.908 C 25.021971,12.912 24.94997,12.932 24.88197,12.968 C 24.83797,12.988 24.81797,13 24.77797,13.032 L 24.74997,13.056 L 24.74997,13.008 C 24.74997,12.98 24.75797,12.68 24.76597,12.336 C 24.76997,11.992 24.77797,11.712 24.77797,11.708 C 24.77797,11.692 24.70597,11.668 24.65797,11.668 C 24.64197,11.668 24.61397,11.672 24.59797,11.676 M 25.04197,13.104 C 25.10197,13.136 25.14197,13.22 25.14997,13.328 C 25.15397,13.448 25.10997,13.56 25.01797,13.676 C 24.96197,13.744 24.80197,13.9 24.79797,13.892 C 24.79797,13.888 24.78997,13.86 24.78597,13.824 C 24.77397,13.712 24.78197,13.336 24.79797,13.272 C 24.81397,13.208 24.84997,13.148 24.88997,13.12 C 24.93397,13.092 24.99797,13.084 25.04197,13.104"
           style="font-size:4px;font-family:Emmentaler" />
        <path
           id="text52"
           d="M 30.6582,12.944 C 30.366201,12.976 30.0662,13.184 29.9422,13.436 C 29.9022,13.52 29.8862,13.58 29.8822,13.656 C 29.8782,13.78 29.9262,13.892 30.0222,13.964 C 30.0542,13.992 30.1262,14.024 30.1702,14.036 C 30.5062,14.136 30.9702,13.904 31.1382,13.56 C 31.1782,13.48 31.1942,13.42 31.1982,13.344 C 31.2022,13.22 31.1542,13.108 31.0582,13.036 C 31.0262,13.008 30.9542,12.976 30.9102,12.964 C 30.8382,12.944 30.7382,12.936 30.6582,12.944"
           style="font-size:4px;font-family:Emmentaler" />
        <g
           id="g56"
           transform="translate(31.13338,13)">
          <rect
             id="rect58"
             ry="0.0028344006"
             height="3.312186"
             width="0.13"
             y="-3"
             x="-0.064999998"
             rx="0.002831107" />
        </g>
        <path
           id="text62"
           d="M 28.022211,11.676 C 28.006211,11.68 27.986211,11.688 27.978211,11.692 L 27.962211,11.7 L 27.962211,11.788 C 27.966211,11.836 27.978211,12.368001 27.990211,12.972 C 28.010211,13.879999 28.014211,14.076 28.022211,14.096 C 28.034211,14.14 28.070211,14.172 28.114211,14.176 C 28.134211,14.176 28.142211,14.176 28.158211,14.168 C 28.186211,14.152 28.202211,14.136 28.242211,14.072 C 28.258211,14.044 28.282211,14.012 28.298211,13.996 C 28.310211,13.984 28.374211,13.924 28.438211,13.864 C 28.55021,13.76 28.590211,13.72 28.634211,13.668 L 28.654211,13.644 L 28.654211,13.68 C 28.654211,13.7 28.654211,13.796 28.658211,13.896 C 28.662211,14.028 28.662211,14.08 28.670211,14.096 C 28.674211,14.12 28.694211,14.148 28.718211,14.16 C 28.738211,14.172 28.742211,14.172 28.770211,14.172 C 28.82221,14.172 28.842211,14.156 28.906211,14.076 C 28.96221,14.004 28.974211,13.992 29.154211,13.852 C 29.35421,13.692 29.430211,13.616 29.486211,13.508 C 29.53421,13.408 29.542211,13.288 29.506211,13.172 C 29.458211,13.016 29.34221,12.916 29.202211,12.908 C 29.082211,12.9 28.95021,12.948 28.850211,13.032 L 28.822211,13.056 L 28.822211,13.008 C 28.822211,12.98 28.830211,12.68 28.838211,12.336 C 28.842211,11.992 28.850211,11.712 28.850211,11.708 C 28.850211,11.692 28.77821,11.668 28.730211,11.668 C 28.686211,11.668 28.610211,11.692 28.610211,11.704 C 28.610211,11.708 28.618211,11.992 28.626211,12.336 C 28.630211,12.68 28.638211,12.964 28.638211,12.968 C 28.638211,12.968 28.626211,12.964 28.614211,12.956 C 28.562211,12.92 28.50621,12.904 28.442211,12.908 C 28.346211,12.916 28.25821,12.96 28.194211,13.032 L 28.174211,13.056 L 28.174211,13.008 C 28.174211,12.98 28.182211,12.68 28.190211,12.336 C 28.194211,11.992 28.202211,11.712 28.202211,11.708 C 28.202211,11.692 28.13021,11.668 28.082211,11.668 C 28.066211,11.668 28.038211,11.672 28.022211,11.676 M 28.370211,13.104 C 28.41821,13.128 28.442211,13.2 28.450211,13.316 C 28.454211,13.48 28.40621,13.628 28.294211,13.78 C 28.246211,13.84 28.178211,13.92 28.178211,13.908 C 28.178211,13.908 28.174211,13.88 28.170211,13.844 C 28.162211,13.76 28.162211,13.6 28.166211,13.432 C 28.170211,13.276 28.174211,13.252 28.194211,13.196 C 28.214211,13.148 28.250211,13.108 28.286211,13.096 C 28.306211,13.088 28.350211,13.092 28.370211,13.104 M 29.102211,13.104 C 29.142211,13.124 29.170211,13.164 29.190211,13.236 C 29.198211,13.268 29.198211,13.28 29.198211,13.344 C 29.198211,13.412 29.198211,13.42 29.190211,13.456 C 29.162211,13.556 29.11821,13.636 29.030211,13.736 C 28.982211,13.792 28.874211,13.896 28.870211,13.892 C 28.866211,13.884 28.854211,13.78 28.850211,13.716 C 28.850211,13.652 28.858211,13.368 28.862211,13.316 C 28.870211,13.228 28.910211,13.156 28.962211,13.12 C 29.002211,13.088 29.062211,13.084 29.102211,13.104"
           style="font-size:4px;font-family:Emmentaler" />
        <path
           id="text68"
           d="M 22.03998,9.016 C 22.01598,9.028 21.90798,9.1360001 21.85598,9.2 C 21.71598,9.3719998 21.61198,9.5520002 21.54798,9.756 C 21.47598,9.9759998 21.45598,10.168 21.46798,10.464 C 21.48798,10.86 21.54798,11.156 21.71198,11.64 L 21.74798,11.744 L 21.63198,11.896 C 21.35998,12.244 21.239979,12.412 21.13198,12.596 C 20.94798,12.904 20.84798,13.18 20.81598,13.472 C 20.80798,13.548 20.80798,13.728 20.81598,13.796 C 20.85998,14.14 21.01198,14.444 21.25198,14.672 C 21.571979,14.976 21.99198,15.108 22.44398,15.044 C 22.47998,15.04 22.49598,15.036 22.49598,15.04 C 22.49998,15.048 22.49998,15.296 22.49598,15.404 C 22.48398,15.68 22.46798,15.796 22.42798,15.924 C 22.33598,16.2 22.171979,16.376 21.95198,16.432 C 21.91198,16.44 21.90398,16.44 21.83198,16.44 C 21.76398,16.44 21.74398,16.44 21.70798,16.432 C 21.56798,16.404 21.447979,16.332 21.35998,16.228 L 21.33198,16.192 L 21.35598,16.2 C 21.38398,16.208 21.44798,16.208 21.49198,16.204 C 21.651979,16.176 21.77598,16.052 21.80398,15.892 C 21.82398,15.768 21.779979,15.624 21.69198,15.528 C 21.61198,15.44 21.483979,15.396 21.35998,15.416 C 21.17598,15.448 21.03598,15.568 20.99198,15.736 C 20.96798,15.816 20.97998,15.956 21.01998,16.068 C 21.119979,16.372 21.40798,16.592 21.74398,16.624 C 21.987979,16.648 22.19998,16.568 22.37198,16.388 C 22.523979,16.224 22.63198,15.976 22.65998,15.72 C 22.67598,15.576 22.68398,15.328 22.68398,15.132 L 22.67998,14.988 L 22.71598,14.976 C 22.811979,14.94 22.91998,14.876 23.00398,14.808 C 23.291979,14.56 23.42398,14.188 23.35198,13.816 C 23.31198,13.592 23.211979,13.4 23.05598,13.24 C 22.96798,13.156 22.895979,13.104 22.78798,13.052 C 22.65998,12.988 22.523979,12.952 22.37198,12.94 L 22.32798,12.94 L 22.31998,12.9 C 22.26798,12.716 22.195979,12.492 22.11198,12.244 C 22.07598,12.136 22.05598,12.068 22.05998,12.064 C 22.05998,12.06 22.09198,12.02 22.12798,11.972 C 22.475979,11.508 22.64398,11.18 22.71198,10.832 C 22.77598,10.532 22.751979,10.268 22.63998,9.924 C 22.52798,9.5840003 22.351979,9.2679998 22.16398,9.068 C 22.10798,9.0080001 22.07998,8.996 22.03998,9.016 M 22.32798,9.668 C 22.415979,9.8279998 22.43998,9.9240002 22.44798,10.116 C 22.45198,10.336 22.41998,10.532 22.34398,10.744 C 22.28398,10.916 22.187979,11.108 22.06398,11.304 L 21.88798,11.556 L 21.87998,11.564 L 21.85198,11.48 C 21.77198,11.236 21.70798,11 21.68798,10.864 C 21.67998,10.82 21.67998,10.792 21.67998,10.716 C 21.67998,10.624 21.67998,10.58 21.69598,10.496 C 21.75198,10.188 21.91998,9.8999998 22.16398,9.704 C 22.21598,9.664 22.29198,9.612 22.29598,9.616 C 22.29998,9.616 22.31198,9.64 22.32798,9.668 M 21.97198,12.388 C 22.059979,12.664 22.14798,12.948 22.13998,12.952 C 22.13998,12.952 22.12398,12.956 22.11198,12.96 C 22.06398,12.968 21.99198,12.992 21.93998,13.012 C 21.84398,13.052 21.76398,13.108 21.68798,13.18 C 21.56798,13.304 21.49198,13.448 21.45998,13.632 C 21.45198,13.692 21.45198,13.824 21.46398,13.888 C 21.51198,14.152 21.67198,14.364 21.93198,14.492 C 21.99598,14.524 22.01598,14.528 22.04798,14.52 C 22.08398,14.504 22.10398,14.476 22.10798,14.436 C 22.10798,14.42 22.10798,14.412 22.09998,14.396 C 22.08798,14.372 22.08398,14.368 22.03598,14.34 C 21.87998,14.252 21.77998,14.128 21.73998,13.976 C 21.73198,13.94 21.73198,13.928 21.73198,13.868 C 21.73198,13.816 21.73198,13.8 21.73998,13.772 C 21.78398,13.592 21.92398,13.46 22.12398,13.412 C 22.15598,13.4 22.17598,13.4 22.24398,13.388 L 22.25998,13.388 L 22.27598,13.456 C 22.367979,13.84 22.43598,14.252 22.47198,14.616 C 22.47998,14.688 22.49198,14.852 22.49198,14.856 C 22.49198,14.856 22.47198,14.86 22.44398,14.86 C 22.32398,14.88 22.151979,14.88 22.04798,14.864 C 21.59598,14.796 21.20398,14.476 21.12398,14.108 C 21.09998,14 21.10398,13.84 21.13598,13.672 C 21.19598,13.332 21.35198,13.008 21.66398,12.58 C 21.73998,12.476 21.91998,12.24 21.92398,12.24 C 21.92398,12.24 21.94398,12.308 21.97198,12.388 M 22.51198,13.412 C 22.823979,13.492 23.04798,13.748 23.08798,14.068 C 23.12398,14.332 23.007979,14.596 22.78798,14.744 C 22.75998,14.76 22.67598,14.804 22.67198,14.804 C 22.67198,14.804 22.66798,14.756 22.66398,14.7 C 22.63198,14.312 22.567979,13.9 22.47198,13.484 C 22.45998,13.44 22.45198,13.404 22.45198,13.404 C 22.45198,13.4 22.45598,13.4 22.51198,13.412"
           style="font-size:4px;font-family:Emmentaler" />
      </g>
    </g>
  </g>
</svg>
