<?xml version="1.0" encoding="UTF-8" standalone="no"?>
<svg
   xmlns:dc="http://purl.org/dc/elements/1.1/"
   xmlns:cc="http://web.resource.org/cc/"
   xmlns:rdf="http://www.w3.org/1999/02/22-rdf-syntax-ns#"
   xmlns:svg="http://www.w3.org/2000/svg"
   xmlns="http://www.w3.org/2000/svg"
   xmlns:xlink="http://www.w3.org/1999/xlink"
   xmlns:sodipodi="http://inkscape.sourceforge.net/DTD/sodipodi-0.dtd"
   xmlns:inkscape="http://www.inkscape.org/namespaces/inkscape"
   version="1.0"
   width="315"
   height="206"
   id="svg2"
   sodipodi:version="0.32"
   inkscape:version="0.43"
   sodipodi:docname="c sharp.svg"
   sodipodi:docbase="C:\program files\LilyPond">
  <metadata
     id="metadata105">
    <rdf:RDF>
      <cc:Work
         rdf:about="">
        <dc:format>image/svg+xml</dc:format>
        <dc:type
           rdf:resource="http://purl.org/dc/dcmitype/StillImage" />
      </cc:Work>
    </rdf:RDF>
  </metadata>
  <defs
     id="defs103" />
  <sodipodi:namedview
     inkscape:window-height="792"
     inkscape:window-width="1152"
     inkscape:pageshadow="2"
     inkscape:pageopacity="0.0"
     borderopacity="1.0"
     bordercolor="#666666"
     pagecolor="#ffffff"
     id="base"
     inkscape:zoom="1"
     inkscape:cx="47.953036"
     inkscape:cy="276.65336"
     inkscape:window-x="-4"
     inkscape:window-y="-4"
     inkscape:current-layer="g6" />
  <g
     transform="scale(1.757299,1.757299)"
     id="g4">
<!-- Page: 1/1 !-->    <g
       id="g6">
      <g
         transform="translate(20.00798,5)"
         id="g8">
        <text
           style="font-size:2.19953132px;fill:currentColor;font-family:Century Schoolbook L"
           id="text10">
          <tspan
             id="tspan12" />
        </text>
      </g>
      <g
         id="g1462"
         transform="matrix(14.22028,0,0,14.78434,-284.5051,-130.8872)">
        <g
           id="g14"
           transform="translate(20.00798,15)">
          <line
             id="line16"
             y2="0"
             x2="12.553446"
             y1="0"
             x1="0.050000001"
             style="stroke:currentColor;stroke-width:0.1;stroke-linecap:round;stroke-linejoin:round" />
        </g>
        <g
           id="g18"
           transform="translate(20.00798,14)">
          <line
             id="line20"
             y2="0"
             x2="12.553446"
             y1="0"
             x1="0.050000001"
             style="stroke:currentColor;stroke-width:0.1;stroke-linecap:round;stroke-linejoin:round" />
        </g>
        <g
           id="g22"
           transform="translate(20.00798,13)">
          <line
             id="line24"
             y2="0"
             x2="12.553446"
             y1="0"
             x1="0.050000001"
             style="stroke:currentColor;stroke-width:0.1;stroke-linecap:round;stroke-linejoin:round" />
        </g>
        <g
           id="g26"
           transform="translate(20.00798,12)">
          <line
             id="line28"
             y2="0"
             x2="12.553446"
             y1="0"
             x1="0.050000001"
             style="stroke:currentColor;stroke-width:0.1;stroke-linecap:round;stroke-linejoin:round" />
        </g>
        <g
           id="g30"
           transform="translate(20.00798,11)">
          <line
             id="line32"
             y2="0"
             x2="12.553446"
             y1="0"
             x1="0.050000001"
             style="stroke:currentColor;stroke-width:0.1;stroke-linecap:round;stroke-linejoin:round" />
        </g>
        <path
           style="font-size:4px;font-family:Emmentaler"
           d="M 26.58398,11.944 C 26.29198,11.976 25.99198,12.184 25.86798,12.436 C 25.82798,12.52 25.81198,12.58 25.80798,12.656 C 25.80398,12.78 25.85198,12.892 25.94798,12.964 C 25.97998,12.992 26.05198,13.024 26.09598,13.036 C 26.43198,13.136 26.89598,12.904 27.06398,12.56 C 27.10398,12.48 27.11998,12.42 27.12398,12.344 C 27.12798,12.22 27.07998,12.108 26.98398,12.036 C 26.95198,12.008 26.87998,11.976 26.83598,11.964 C 26.76398,11.944 26.66398,11.936 26.58398,11.944"
           id="text36" />
        <g
           id="g40"
           transform="translate(25.87298,13)">
          <rect
             id="rect42"
             ry="0.0027055617"
             height="3.312186"
             width="0.13"
             y="-0.312186"
             x="-0.064999998"
             rx="0.0028128836" />
        </g>
        <path
           style="font-size:4px;font-family:Emmentaler"
           d="M 25.10997,11.012 C 25.09397,11.02 25.08197,11.028 25.07797,11.04 L 25.06597,11.056 L 25.06197,11.368 L 25.06197,11.68 L 24.90597,11.752 L 24.75397,11.824 L 24.75397,11.54 L 24.75397,11.252 L 24.74597,11.232 C 24.73797,11.224 24.72997,11.212 24.72597,11.208 C 24.71397,11.196 24.68597,11.184 24.66597,11.184 C 24.64197,11.184 24.60997,11.204 24.59797,11.224 L 24.58597,11.24 L 24.58197,11.572 L 24.58197,11.904 L 24.48997,11.948 C 24.44197,11.968 24.39797,11.992 24.38997,11.996 C 24.38597,12 24.37797,12.016 24.36997,12.024 L 24.36197,12.04 L 24.35797,12.172 C 24.35797,12.256 24.35797,12.308 24.36197,12.32 C 24.36597,12.34 24.38597,12.364 24.40997,12.38 C 24.42597,12.388 24.43397,12.388 24.45797,12.388 C 24.48597,12.388 24.48997,12.388 24.53397,12.368 L 24.58197,12.344 L 24.58197,12.652 L 24.58197,12.956 L 24.48997,13 C 24.44197,13.02 24.39797,13.044 24.38997,13.048 C 24.38597,13.052 24.37797,13.068 24.36997,13.076 L 24.36197,13.092 L 24.35797,13.224 C 24.35797,13.308 24.35797,13.36 24.36197,13.372 C 24.36597,13.392 24.38597,13.416 24.40997,13.432 C 24.42597,13.44 24.43397,13.44 24.45797,13.44 C 24.48597,13.44 24.48997,13.44 24.53397,13.42 L 24.58197,13.396 L 24.58197,13.664 L 24.58197,13.928 L 24.58997,13.948 C 24.59797,13.96 24.60597,13.972 24.60997,13.976 C 24.62197,13.988 24.64997,14 24.66997,14 C 24.69397,14 24.72597,13.98 24.73797,13.96 L 24.75397,13.944 L 24.75397,13.628 L 24.75797,13.316 L 24.90997,13.244 L 25.06197,13.172 L 25.06197,13.46 L 25.06197,13.744 L 25.06997,13.764 C 25.07797,13.776 25.08597,13.788 25.08997,13.792 C 25.10197,13.804 25.12997,13.816 25.14997,13.816 C 25.17397,13.816 25.20597,13.796 25.21797,13.776 L 25.23397,13.76 L 25.23397,13.424 L 25.23797,13.092 L 25.32597,13.048 C 25.37397,13.028 25.41797,13.004 25.42597,13 C 25.42997,12.996 25.43797,12.98 25.44597,12.972 L 25.45797,12.952 L 25.45797,12.824 C 25.45797,12.74 25.45797,12.688 25.45397,12.676 C 25.44997,12.656 25.42997,12.632 25.40597,12.616 C 25.38997,12.608 25.38197,12.608 25.35797,12.608 C 25.32997,12.608 25.32597,12.608 25.28197,12.628 L 25.23397,12.652 L 25.23397,12.344 L 25.23797,12.04 L 25.32597,11.996 C 25.37397,11.976 25.41797,11.952 25.42597,11.948 C 25.42997,11.944 25.43797,11.928 25.44597,11.92 L 25.45797,11.9 L 25.45797,11.772 C 25.45797,11.688 25.45797,11.636 25.45397,11.624 C 25.44997,11.604 25.42997,11.58 25.40597,11.564 C 25.38997,11.556 25.38197,11.556 25.35797,11.556 C 25.32997,11.556 25.32597,11.556 25.28197,11.576 L 25.23397,11.6 L 25.23397,11.336 L 25.23397,11.068 L 25.22597,11.048 C 25.21397,11.028 25.20597,11.02 25.18197,11.008 C 25.15797,10.996 25.13397,10.996 25.10997,11.012 M 25.05797,12.732 C 25.05397,12.736 24.98597,12.768 24.90197,12.804 L 24.75397,12.876 L 24.75397,12.568 L 24.75797,12.264 L 24.90997,12.192 L 25.06197,12.12 L 25.06197,12.424 C 25.06197,12.668 25.06197,12.732 25.05797,12.732"
           id="text46" />
        <path
           style="font-size:4px;font-family:Emmentaler"
           d="M 30.3732,11.944 C 30.0812,11.976 29.7812,12.184 29.6572,12.436 C 29.6172,12.52 29.6012,12.58 29.5972,12.656 C 29.5932,12.78 29.6412,12.892 29.7372,12.964 C 29.7692,12.992 29.8412,13.024 29.8852,13.036 C 30.2212,13.136 30.6852,12.904 30.8532,12.56 C 30.8932,12.48 30.9092,12.42 30.9132,12.344 C 30.9172,12.22 30.8692,12.108 30.7732,12.036 C 30.7412,12.008 30.6692,11.976 30.6252,11.964 C 30.5532,11.944 30.4532,11.936 30.3732,11.944"
           id="text52" />
        <g
           id="g56"
           transform="translate(29.6622,13)">
          <rect
             id="rect58"
             ry="0.0027055617"
             height="3.312186"
             width="0.13"
             y="-0.312186"
             x="-0.064999998"
             rx="0.0028128836" />
        </g>
        <path
           style="font-size:4px;font-family:Emmentaler"
           d="M 28.2192,11.96 C 28.1952,11.976 28.1952,11.972 28.2192,12.172 C 28.2272,12.268 28.2392,12.356 28.2432,12.364 C 28.2512,12.384 28.2632,12.388 28.3312,12.392 C 28.4032,12.396 28.4712,12.408 28.5192,12.428 C 28.5512,12.44 28.6032,12.472 28.6192,12.488 C 28.6192,12.488 28.6272,12.5 28.6272,12.5 C 28.6272,12.5 28.6192,12.512 28.6192,12.512 C 28.6032,12.528 28.5512,12.56 28.5192,12.572 C 28.4712,12.592 28.4032,12.604 28.3312,12.608 C 28.2632,12.612 28.2512,12.616 28.2432,12.636 C 28.2392,12.644 28.2272,12.732 28.2152,12.828 C 28.1992,13 28.1992,13.008 28.2032,13.024 C 28.2072,13.032 28.2152,13.04 28.2232,13.044 C 28.2392,13.048 28.2472,13.048 28.4192,13.032 C 28.5152,13.02 28.6032,13.008 28.6112,13.008 C 28.6312,12.996 28.6352,12.984 28.6392,12.924 C 28.6472,12.832 28.6552,12.776 28.6792,12.72 C 28.6912,12.688 28.7192,12.644 28.7352,12.628 C 28.7352,12.628 28.7472,12.62 28.7472,12.62 C 28.7472,12.62 28.7592,12.628 28.7592,12.628 C 28.7752,12.644 28.8032,12.688 28.8152,12.72 C 28.8392,12.776 28.8472,12.832 28.8552,12.924 C 28.8592,12.984 28.8632,12.996 28.8832,13.008 C 28.8912,13.008 28.9792,13.02 29.0752,13.032 C 29.2472,13.048 29.2552,13.048 29.2712,13.044 C 29.2792,13.04 29.2872,13.032 29.2912,13.024 C 29.2952,13.008 29.2952,13 29.2792,12.828 C 29.2672,12.732 29.2552,12.644 29.2512,12.636 C 29.2432,12.616 29.2312,12.612 29.1632,12.608 C 29.0912,12.604 29.0232,12.592 28.9752,12.572 C 28.9432,12.56 28.8912,12.528 28.8752,12.512 C 28.8752,12.512 28.8672,12.5 28.8672,12.5 C 28.8672,12.5 28.8752,12.488 28.8752,12.488 C 28.8912,12.472 28.9432,12.44 28.9752,12.428 C 29.0232,12.408 29.0912,12.396 29.1632,12.392 C 29.2312,12.388 29.2432,12.384 29.2512,12.364 C 29.2552,12.356 29.2672,12.268 29.2792,12.172 C 29.2952,12 29.2952,11.992 29.2912,11.976 C 29.2872,11.968 29.2792,11.96 29.2712,11.956 C 29.2552,11.952 29.2472,11.952 29.0752,11.968 C 28.9792,11.98 28.8912,11.992 28.8832,11.992 C 28.8632,12.004 28.8592,12.016 28.8552,12.076 C 28.8472,12.168 28.8392,12.224 28.8152,12.28 C 28.8032,12.312 28.7752,12.356 28.7592,12.372 C 28.7592,12.372 28.7472,12.38 28.7472,12.38 C 28.7472,12.38 28.7352,12.372 28.7352,12.372 C 28.7192,12.356 28.6912,12.312 28.6792,12.28 C 28.6552,12.224 28.6472,12.168 28.6392,12.076 C 28.6352,12.016 28.6312,12.004 28.6112,11.992 C 28.5992,11.988 28.2672,11.952 28.2392,11.952 C 28.2352,11.952 28.2272,11.956 28.2192,11.96"
           id="text62" />
        <path
           style="font-size:4px;font-family:Emmentaler"
           d="M 22.03998,9.016 C 22.01598,9.028 21.90798,9.1360001 21.85598,9.2 C 21.71598,9.3719998 21.61198,9.5520002 21.54798,9.756 C 21.47598,9.9759998 21.45598,10.168 21.46798,10.464 C 21.48798,10.86 21.54798,11.156 21.71198,11.64 L 21.74798,11.744 L 21.63198,11.896 C 21.35998,12.244 21.23998,12.412 21.13198,12.596 C 20.94798,12.904 20.84798,13.18 20.81598,13.472 C 20.80798,13.548 20.80798,13.728 20.81598,13.796 C 20.85998,14.14 21.01198,14.444 21.25198,14.672 C 21.57198,14.976 21.991981,15.108 22.44398,15.044 C 22.47998,15.04 22.49598,15.036 22.49598,15.04 C 22.49998,15.048 22.49998,15.296 22.49598,15.404 C 22.48398,15.68 22.46798,15.796 22.42798,15.924 C 22.33598,16.2 22.17198,16.376 21.95198,16.432 C 21.91198,16.44 21.90398,16.44 21.83198,16.44 C 21.76398,16.44 21.74398,16.44 21.70798,16.432 C 21.56798,16.404 21.44798,16.332 21.35998,16.228 L 21.33198,16.192 L 21.35598,16.2 C 21.38398,16.208 21.44798,16.208 21.49198,16.204 C 21.65198,16.176 21.77598,16.052 21.80398,15.892 C 21.82398,15.768 21.77998,15.624 21.69198,15.528 C 21.61198,15.44 21.48398,15.396 21.35998,15.416 C 21.17598,15.448 21.03598,15.568 20.99198,15.736 C 20.96798,15.816 20.97998,15.956 21.01998,16.068 C 21.11998,16.372 21.40798,16.592 21.74398,16.624 C 21.98798,16.648 22.19998,16.568 22.37198,16.388 C 22.52398,16.224 22.63198,15.976 22.65998,15.72 C 22.67598,15.576 22.68398,15.328 22.68398,15.132 L 22.67998,14.988 L 22.71598,14.976 C 22.81198,14.94 22.91998,14.876 23.00398,14.808 C 23.29198,14.56 23.42398,14.188 23.35198,13.816 C 23.31198,13.592 23.21198,13.4 23.05598,13.24 C 22.96798,13.156 22.89598,13.104 22.78798,13.052 C 22.65998,12.988 22.52398,12.952 22.37198,12.94 L 22.32798,12.94 L 22.31998,12.9 C 22.26798,12.716 22.19598,12.492 22.11198,12.244 C 22.07598,12.136 22.05598,12.068 22.05998,12.064 C 22.05998,12.06 22.09198,12.02 22.12798,11.972 C 22.47598,11.508001 22.64398,11.18 22.71198,10.832 C 22.77598,10.532 22.75198,10.268 22.63998,9.924 C 22.52798,9.5840003 22.35198,9.2679998 22.16398,9.068 C 22.10798,9.0080001 22.07998,8.996 22.03998,9.016 M 22.32798,9.668 C 22.41598,9.8279998 22.43998,9.9240002 22.44798,10.116 C 22.45198,10.336 22.41998,10.532 22.34398,10.744 C 22.28398,10.916 22.18798,11.108 22.06398,11.304 L 21.88798,11.556 L 21.87998,11.564 L 21.85198,11.48 C 21.77198,11.236 21.70798,11 21.68798,10.864 C 21.67998,10.82 21.67998,10.792 21.67998,10.716 C 21.67998,10.624 21.67998,10.58 21.69598,10.496 C 21.75198,10.188 21.91998,9.8999998 22.16398,9.704 C 22.21598,9.664 22.29198,9.612 22.29598,9.616 C 22.29998,9.616 22.31198,9.64 22.32798,9.668 M 21.97198,12.388 C 22.05998,12.664 22.14798,12.948 22.13998,12.952 C 22.13998,12.952 22.12398,12.956 22.11198,12.96 C 22.06398,12.968 21.99198,12.992 21.93998,13.012 C 21.84398,13.052 21.76398,13.108 21.68798,13.18 C 21.56798,13.304 21.49198,13.448 21.45998,13.632 C 21.45198,13.692 21.45198,13.824 21.46398,13.888 C 21.51198,14.152 21.67198,14.364 21.93198,14.492 C 21.99598,14.524 22.01598,14.528 22.04798,14.52 C 22.08398,14.504 22.10398,14.476 22.10798,14.436 C 22.10798,14.42 22.10798,14.412 22.09998,14.396 C 22.08798,14.372 22.08398,14.368 22.03598,14.34 C 21.87998,14.252 21.77998,14.128 21.73998,13.976 C 21.73198,13.94 21.73198,13.928 21.73198,13.868 C 21.73198,13.816 21.73198,13.8 21.73998,13.772 C 21.78398,13.592 21.92398,13.46 22.12398,13.412 C 22.15598,13.4 22.17598,13.4 22.24398,13.388 L 22.25998,13.388 L 22.27598,13.456 C 22.36798,13.84 22.43598,14.252 22.47198,14.616 C 22.47998,14.688 22.49198,14.852 22.49198,14.856 C 22.49198,14.856 22.47198,14.86 22.44398,14.86 C 22.32398,14.88 22.15198,14.88 22.04798,14.864 C 21.59598,14.796 21.20398,14.476 21.12398,14.108 C 21.09998,14 21.10398,13.84 21.13598,13.672 C 21.19598,13.332 21.35198,13.008 21.66398,12.58 C 21.73998,12.476 21.91998,12.24 21.92398,12.24 C 21.92398,12.24 21.94398,12.308 21.97198,12.388 M 22.51198,13.412 C 22.82398,13.492 23.04798,13.748 23.08798,14.068 C 23.12398,14.332 23.00798,14.596 22.78798,14.744 C 22.75998,14.76 22.67598,14.804 22.67198,14.804 C 22.67198,14.804 22.66798,14.756 22.66398,14.7 C 22.63198,14.312 22.56798,13.9 22.47198,13.484 C 22.45998,13.44 22.45198,13.404 22.45198,13.404 C 22.45198,13.4 22.45598,13.4 22.51198,13.412"
           id="text68" />
      </g>
      <g
         transform="translate(31.741,163.0777)"
         id="g72">
        <a
           xlink:href="http://lilypond.org/web/"
           id="a74">
          <rect
             x="0"
             y="-0.443863"
             width="56.019573"
             height="2.0827417"
             id="rect76"
             style="fill:none;stroke:none;stroke-width:0" />
        </a>
      </g>
    </g>
  </g>
</svg>
