<?xml version="1.0" encoding="UTF-8" standalone="no"?>
<!-- Created with Inkscape (http://www.inkscape.org/) -->
<svg
   xmlns:dc="http://purl.org/dc/elements/1.1/"
   xmlns:cc="http://creativecommons.org/ns#"
   xmlns:rdf="http://www.w3.org/1999/02/22-rdf-syntax-ns#"
   xmlns:svg="http://www.w3.org/2000/svg"
   xmlns="http://www.w3.org/2000/svg"
   xmlns:sodipodi="http://sodipodi.sourceforge.net/DTD/sodipodi-0.dtd"
   xmlns:inkscape="http://www.inkscape.org/namespaces/inkscape"
   width="222.03134"
   height="140.28192"
   id="svg2"
   sodipodi:version="0.32"
   inkscape:version="0.46"
   version="1.0"
   sodipodi:docname="Eighth notes and rest.svg"
   inkscape:output_extension="org.inkscape.output.svg.inkscape">
  <defs
     id="defs4">
    <inkscape:perspective
       sodipodi:type="inkscape:persp3d"
       inkscape:vp_x="0 : 526.18109 : 1"
       inkscape:vp_y="0 : 1000 : 0"
       inkscape:vp_z="744.09448 : 526.18109 : 1"
       inkscape:persp3d-origin="372.04724 : 350.78739 : 1"
       id="perspective10" />
    <inkscape:perspective
       id="perspective2390"
       inkscape:persp3d-origin="372.04724 : 350.78739 : 1"
       inkscape:vp_z="744.09448 : 526.18109 : 1"
       inkscape:vp_y="0 : 1000 : 0"
       inkscape:vp_x="0 : 526.18109 : 1"
       sodipodi:type="inkscape:persp3d" />
    <inkscape:perspective
       sodipodi:type="inkscape:persp3d"
       inkscape:vp_x="0 : 526.18109 : 1"
       inkscape:vp_y="0 : 1000 : 0"
       inkscape:vp_z="744.09448 : 526.18109 : 1"
       inkscape:persp3d-origin="372.04724 : 350.78739 : 1"
       id="perspective2543" />
    <inkscape:perspective
       id="perspective58"
       inkscape:persp3d-origin="287.25 : 20.064538 : 1"
       inkscape:vp_z="574.5 : 30.096807 : 1"
       inkscape:vp_y="0 : 1000 : 0"
       inkscape:vp_x="0 : 30.096807 : 1"
       sodipodi:type="inkscape:persp3d" />
    <inkscape:perspective
       id="perspective2766"
       inkscape:persp3d-origin="130 : 24 : 1"
       inkscape:vp_z="260 : 36 : 1"
       inkscape:vp_y="0 : 1000 : 0"
       inkscape:vp_x="0 : 36 : 1"
       sodipodi:type="inkscape:persp3d" />
    <inkscape:perspective
       id="perspective2407"
       inkscape:persp3d-origin="372.04724 : 350.78739 : 1"
       inkscape:vp_z="744.09448 : 526.18109 : 1"
       inkscape:vp_y="0 : 1000 : 0"
       inkscape:vp_x="0 : 526.18109 : 1"
       sodipodi:type="inkscape:persp3d" />
  </defs>
  <sodipodi:namedview
     id="base"
     pagecolor="#ffffff"
     bordercolor="#666666"
     borderopacity="1.0"
     gridtolerance="10000"
     guidetolerance="10"
     objecttolerance="10"
     inkscape:pageopacity="0.0"
     inkscape:pageshadow="2"
     inkscape:zoom="0.98994949"
     inkscape:cx="-116.92599"
     inkscape:cy="-51.113302"
     inkscape:document-units="px"
     inkscape:current-layer="layer1"
     showgrid="false"
     inkscape:window-width="781"
     inkscape:window-height="715"
     inkscape:window-x="450"
     inkscape:window-y="105" />
  <metadata
     id="metadata7">
    <rdf:RDF>
      <cc:Work
         rdf:about="">
        <dc:format>image/svg+xml</dc:format>
        <dc:type
           rdf:resource="http://purl.org/dc/dcmitype/StillImage" />
      </cc:Work>
    </rdf:RDF>
  </metadata>
  <g
     inkscape:label="Layer 1"
     inkscape:groupmode="layer"
     id="layer1"
     transform="translate(-427.0449,-183.12188)">
    <path
       id="path2612"
       style="fill:#000000;fill-rule:nonzero;stroke:#000000;stroke-width:0;stroke-linecap:butt;stroke-linejoin:round;stroke-miterlimit:10"
       d="M 531.64312,238.71436 L 530.34443,238.71436 L 530.34443,322.34175 L 531.64312,322.34175 L 531.64312,238.71436 z" />
    <g
       id="g3810"
       transform="matrix(3.6185261,0,0,3.6185261,-1238.8138,-534.3384)">
      <path
         sodipodi:nodetypes="ccccccscssssscccsccccc"
         d="M 489.22871,233.38324 L 489.22871,229.81137 L 489.45841,229.81137 L 489.71683,229.81137 L 490.14895,229.35053 C 492.94702,226.40604 494.23622,224.25832 494.46736,222.22832 C 494.49463,221.88664 494.48588,221.05772 494.43864,220.54145 C 494.34737,219.54405 494.1113,218.73018 493.80898,217.98443 C 493.75299,217.81072 493.697,217.67146 493.697,217.58101 C 493.697,217.46904 493.78026,217.23934 493.89225,217.15464 C 493.98269,217.03691 494.23535,216.95364 494.38036,216.95364 C 494.49233,216.95364 494.75075,217.07136 494.8412,217.15464 C 494.92446,217.23934 495.03645,217.52503 495.26615,218.21556 C 496.01268,220.47526 495.86854,221.31526 495.58285,223.05813 C 495.40914,224.09035 495.03875,225.11683 494.46736,226.28831 C 494.03523,227.14682 493.66483,227.77994 492.60533,229.49697 C 491.17544,231.78538 490.63133,232.87215 490.20495,234.15705 C 489.91926,235.01556 489.71683,236.07506 489.71683,236.78714 L 489.71683,236.96085 L 489.48713,236.96085 L 489.22871,236.96085 L 489.22871,233.38324 z"
         style="fill:#000000;fill-rule:evenodd;stroke:#000000;stroke-width:0;stroke-linecap:butt;stroke-linejoin:round;stroke-miterlimit:10"
         id="path58" />
      <path
         d="M 489.2757,213.63747 L 488.9168,213.63747 L 488.9168,236.74837 L 489.2757,236.74837 L 489.2757,213.63747 z"
         style="fill:#000000;stroke:#000000;stroke-width:0.58700001;stroke-linecap:butt;stroke-linejoin:round;stroke-miterlimit:10;stroke-dasharray:none"
         id="path2614" />
      <path
         d="M 492.33201,216.47428 C 493.50493,216.32928 494.70369,215.8469 495.73591,215.04439 C 496.90883,214.18732 497.70991,213.04311 497.96833,211.87019 C 498.02432,211.49549 498.02432,210.8394 497.93962,210.55228 C 497.68264,209.54876 496.88012,208.92139 495.67992,208.66298 C 495.33825,208.60698 494.47399,208.60698 494.0476,208.66298 C 492.96083,208.8654 491.8439,209.35351 490.87484,210.06559 C 489.73064,210.92268 488.92811,212.06688 488.66971,213.23979 C 488.6137,213.6145 488.6137,214.27057 488.6984,214.58498 C 488.95682,215.52677 489.73064,216.16131 490.87484,216.41829 C 491.18781,216.47428 491.99033,216.50299 492.33201,216.47428 z"
         style="fill:#000000;fill-rule:evenodd;stroke:#000000;stroke-width:0;stroke-linecap:butt;stroke-linejoin:round;stroke-miterlimit:10"
         id="path2616" />
    </g>
    <g
       style="fill:none;stroke:#000000;stroke-width:1.69296145;stroke-miterlimit:4;stroke-dasharray:none"
       id="lines"
       transform="matrix(0.852262,0,0,3.6844719,427.69264,126.93515)">
      <path
         d="M 1,46.5 L 258,46.5"
         id="path14"
         style="stroke-width:1.69296145;stroke-miterlimit:4;stroke-dasharray:none" />
      <path
         d="M 1,39.5 L 258,39.5"
         id="path18"
         style="stroke-width:1.69296145;stroke-miterlimit:4;stroke-dasharray:none" />
      <path
         d="M 1,32.5 L 258,32.5"
         id="path22"
         style="stroke-width:1.69296145;stroke-miterlimit:4;stroke-dasharray:none" />
      <path
         d="M 1,25.5 L 258,25.5"
         id="path26"
         style="stroke-width:1.69296145;stroke-miterlimit:4;stroke-dasharray:none" />
      <path
         d="M 1,18.5 L 258,18.5"
         id="path30"
         style="stroke-width:1.69296145;stroke-miterlimit:4;stroke-dasharray:none" />
    </g>
    <path
       id="path2788"
       style="fill:#000000;fill-rule:nonzero;stroke:#000000;stroke-width:0;stroke-linecap:butt;stroke-linejoin:round;stroke-miterlimit:10"
       d="M 484.67701,269.95063 L 486.00895,269.95063 L 486.00895,184.18346 L 484.67701,184.18346 L 484.67701,269.95063 z" />
    <g
       id="g3805"
       transform="matrix(3.6185261,0,0,3.6185261,-1238.8138,-534.3384)">
      <path
         d="M 476.03721,202.01879 L 476.03721,205.68205 L 476.2728,205.68205 L 476.53782,205.68205 L 476.981,206.15468 C 479.85066,209.17452 481.17285,211.37718 481.4099,213.45912 C 481.43787,213.80954 481.43787,214.66057 481.38045,215.18915 C 481.23175,216.57024 480.85188,218.06617 480.29384,219.35449 C 480.23642,219.53265 480.179,219.67547 480.179,219.76823 C 480.179,219.88307 480.26439,220.11865 480.37924,220.20552 C 480.472,220.32625 480.73113,220.41166 480.87985,220.41166 C 480.99469,220.41166 481.25972,220.29093 481.35248,220.20552 C 481.43787,220.11865 481.55272,219.82565 481.7883,219.11745 C 482.55393,216.79993 482.84694,214.39555 482.55393,212.60809 C 482.37578,211.54945 481.99591,210.49671 481.4099,209.29525 C 480.96672,208.41477 480.58684,207.76546 479.50023,206.0045 C 478.03375,203.65754 477.47572,202.54296 477.03843,201.22518 C 476.74543,200.34471 476.53782,199.25809 476.53782,198.5278 L 476.53782,198.34964 L 476.30224,198.34964 L 476.03721,198.34964 L 476.03721,202.01879 z"
         style="fill:#000000;fill-rule:evenodd;stroke:#000000;stroke-width:0;stroke-linecap:butt;stroke-linejoin:round;stroke-miterlimit:10"
         id="path2786" />
      <path
         d="M 476.29635,222.26979 L 476.66444,222.26979 L 476.66444,198.56755 L 476.29635,198.56755 L 476.29635,222.26979 z"
         style="fill:#000000;stroke:#000000;stroke-width:0.58674884;stroke-linecap:butt;stroke-linejoin:round;stroke-miterlimit:10"
         id="path2790" />
      <path
         d="M 473.16184,219.36039 C 471.95892,219.50909 470.72948,220.00381 469.67085,220.82687 C 468.46792,221.70587 467.64634,222.87935 467.38131,224.08228 C 467.32389,224.46657 467.32389,225.13944 467.41076,225.43391 C 467.67432,226.4631 468.49737,227.10653 469.72827,227.37155 C 470.0787,227.42898 470.96506,227.42898 471.40236,227.37155 C 472.51694,227.16395 473.66245,226.66335 474.6563,225.93305 C 475.82978,225.05404 476.65284,223.88056 476.91786,222.67763 C 476.97529,222.29334 476.97529,221.62048 476.88842,221.29803 C 476.62339,220.33215 475.82978,219.68136 474.6563,219.41781 C 474.33532,219.36039 473.51227,219.33094 473.16184,219.36039 z"
         style="fill:#000000;fill-rule:evenodd;stroke:#000000;stroke-width:0;stroke-linecap:butt;stroke-linejoin:round;stroke-miterlimit:10"
         id="path2792" />
    </g>
    <path
       d="M 602.91224,222.85591 C 600.44903,223.32013 598.56375,225.02069 597.71111,227.37017 C 597.52639,228.1281 597.52639,228.31283 597.52639,229.35019 C 597.52639,230.776 597.61638,231.53393 598.28429,232.66128 C 599.22691,234.55131 601.20693,236.06711 603.46645,236.62133 C 605.83488,237.28923 609.79493,236.7161 614.32814,235.21448 L 615.45553,234.82607 L 609.88492,250.22098 L 604.40908,265.59693 C 604.40908,265.59693 604.59384,265.69166 604.89226,265.89535 C 605.44647,266.26484 606.3891,266.54433 607.05701,266.54433 C 608.18439,266.54433 609.6102,265.89535 609.79493,265.32221 C 609.79493,265.13745 612.43812,256.16104 615.64026,245.50304 L 621.30086,225.96332 L 621.1161,225.6886 C 620.65666,225.11543 619.71399,224.93067 619.13608,225.39015 C 618.95135,225.57491 618.65767,225.96332 618.47295,226.24282 C 617.62028,227.66862 615.45553,230.20286 614.32814,231.14548 C 613.29075,231.99812 612.71761,232.08815 611.77495,231.71866 C 610.92232,231.25444 610.64286,230.776 610.06968,228.22284 C 609.51547,225.6886 608.8523,224.53751 607.42649,223.59489 C 606.10964,222.74696 604.40908,222.4675 602.91224,222.85591 z"
       style="fill:#000000;fill-rule:evenodd;stroke:#000000;stroke-width:0;stroke-linecap:butt;stroke-linejoin:round;stroke-miterlimit:10"
       id="path2932" />
  </g>
</svg>
