<?xml version="1.0" encoding="UTF-8" standalone="no"?>
<!-- Created with Inkscape (http://www.inkscape.org/) -->

<svg
   xmlns:svg="http://www.w3.org/2000/svg"
   xmlns="http://www.w3.org/2000/svg"
   version="1.0"
   width="74.699997"
   height="119.7"
   id="svg2">
  <defs
     id="defs4" />
  <path
     d="m -0.65951503,12.731532 0,12.689513 0.9512169,0 1.07006463,0 1.7893658,1.637197 C 14.737718,37.518946 20.076221,45.14895 21.033304,52.360783 c 0.113127,1.213844 0.113127,4.161814 -0.118644,5.992819 -0.600381,4.784081 -2.134146,9.965969 -4.3873,14.428709 -0.231755,0.617136 -0.463671,1.111871 -0.463671,1.4332 0,0.397792 0.344809,1.213856 0.80848,1.514757 0.374696,0.418221 1.4208,0.714066 2.021282,0.714066 0.463657,0 1.533765,-0.418208 1.908301,-0.714066 0.344809,-0.301003 0.808481,-1.315855 1.759653,-3.769051 3.091317,-8.027885 4.274392,-16.356644 3.091317,-22.548392 C 24.933421,45.745709 23.399657,42.09902 21.03358,37.937153 19.244171,34.887173 17.710376,32.637972 13.323062,26.53801 7.4019836,18.408141 5.1488737,14.547254 3.3832803,9.9824642 2.2002495,6.9325209 1.3620133,3.1684742 1.3620133,0.63876278 l 0,-0.61714845 -0.95118786,0 -1.07009359,0 0,12.70991767 z"
     id="path2786" />
</svg>
