<?xml version="1.0" encoding="UTF-8" standalone="no"?>
<!-- Created with Inkscape (http://www.inkscape.org/) -->

<svg
   xmlns:dc="http://purl.org/dc/elements/1.1/"
   xmlns:cc="http://creativecommons.org/ns#"
   xmlns:rdf="http://www.w3.org/1999/02/22-rdf-syntax-ns#"
   xmlns:svg="http://www.w3.org/2000/svg"
   xmlns="http://www.w3.org/2000/svg"
   xmlns:sodipodi="http://sodipodi.sourceforge.net/DTD/sodipodi-0.dtd"
   xmlns:inkscape="http://www.inkscape.org/namespaces/inkscape"
   version="1.0"
   width="74.699997"
   height="119.7"
   id="svg2"
   inkscape:version="0.47 r22583"
   sodipodi:docname="flat.svg">
  <metadata
     id="metadata2883">
    <rdf:RDF>
      <cc:Work
         rdf:about="">
        <dc:format>image/svg+xml</dc:format>
        <dc:type
           rdf:resource="http://purl.org/dc/dcmitype/StillImage" />
        <dc:title></dc:title>
      </cc:Work>
    </rdf:RDF>
  </metadata>
  <defs
     id="defs2881">
    <inkscape:perspective
       sodipodi:type="inkscape:persp3d"
       inkscape:vp_x="0 : 59.849998 : 1"
       inkscape:vp_y="0 : 1000 : 0"
       inkscape:vp_z="74.699997 : 59.849998 : 1"
       inkscape:persp3d-origin="37.349998 : 39.899999 : 1"
       id="perspective2885" />
    <inkscape:perspective
       id="perspective2941"
       inkscape:persp3d-origin="0.5 : 0.33333333 : 1"
       inkscape:vp_z="1 : 0.5 : 1"
       inkscape:vp_y="0 : 1000 : 0"
       inkscape:vp_x="0 : 0.5 : 1"
       sodipodi:type="inkscape:persp3d" />
  </defs>
  <sodipodi:namedview
     pagecolor="#ffffff"
     bordercolor="#666666"
     borderopacity="1"
     objecttolerance="10"
     gridtolerance="10"
     guidetolerance="10"
     inkscape:pageopacity="0"
     inkscape:pageshadow="2"
     inkscape:window-width="768"
     inkscape:window-height="661"
     id="namedview2879"
     showgrid="false"
     inkscape:zoom="4"
     inkscape:cx="13.7823"
     inkscape:cy="129.39831"
     inkscape:window-x="483"
     inkscape:window-y="205"
     inkscape:window-maximized="0"
     inkscape:current-layer="svg2" />
  <path
     d="m 1.8866352,-50.951297 c -0.5833316,0.100336 -1.3124492,0.35869 -1.60412663,0.537561 l -0.58333155,0.179816 0,2.492572 c 0.14565745,1.43448 0.58333155,16.461455 1.02077163,33.597136 0.72910585,25.764516 0.87499735,31.325255 1.16666325,31.893687 0.1456568,0.717369 0.8749973,1.43456 1.7499711,1.811156 0.7291058,0.358685 0.8749975,0.358685 1.8957806,0.358685 0.8749973,0 1.1666633,0 1.8958041,-0.179698 0.8749973,-0.537554 1.4582936,-0.896267 3.2082533,-2.725571 1.604127,-1.793275 2.916611,-2.492587 8.020634,-5.558964 4.958212,-3.0662865 6.416517,-3.9808203 8.603965,-5.5588432 3.937405,-3.1740162 5.687366,-6.00720011 5.979017,-9.4142921 0.145765,-2.8331838 -0.874995,-6.0250519 -2.916599,-8.2845037 -0.874998,-0.896268 -2.624932,-2.384979 -3.645737,-2.833199 -2.187448,-0.896373 -3.937409,-1.255346 -6.416509,-1.255346 -2.91661,0.100315 -5.541532,0.717381 -8.020633,1.613826 -1.604127,0.537563 -2.3332913,0.896252 -3.7915844,1.811151 l -1.0207718,0.717391 0,-1.434584 c 0,-0.717382 0.2916674,-9.306659 0.5833314,-19.068826 0.1456599,-9.754878 0.4374404,-17.698701 0.4374404,-17.82429 0,-0.537564 -2.6249335,-1.075883 -4.3748929,-1.075883 -0.5833317,0 -1.6041267,0.100336 -2.1874465,0.178868 m 16.1871038,40.520637 c 2.187445,0.8962384 3.64575,3.2994784 3.937405,6.3479739 0.145661,3.40700189 -1.458293,6.5809886 -4.812391,9.8804697 -2.041614,1.9365601 -7.8748014,6.3478854 -8.0206342,6.1326614 0,-0.100367 -0.2916642,-0.896236 -0.4374397,-1.9366494 C 8.3032387,6.7976574 8.5950192,-3.8717336 9.1781188,-5.7007715 9.76145,-7.5119289 11.073889,-9.2154751 12.532205,-10.022396 c 1.604127,-0.717369 3.937406,-1.075966 5.541521,-0.537554"
     id="path2877" />
</svg>
