<?xml version="1.0" encoding="UTF-8" standalone="no"?>
<svg
   xmlns:dc="http://purl.org/dc/elements/1.1/"
   xmlns:cc="http://creativecommons.org/ns#"
   xmlns:rdf="http://www.w3.org/1999/02/22-rdf-syntax-ns#"
   xmlns:svg="http://www.w3.org/2000/svg"
   xmlns="http://www.w3.org/2000/svg"
   xmlns:sodipodi="http://sodipodi.sourceforge.net/DTD/sodipodi-0.dtd"
   xmlns:inkscape="http://www.inkscape.org/namespaces/inkscape"
   version="1.1"
   width="74.699997"
   height="119.7"
   id="svg2818"
   inkscape:version="0.47 r22583"
   sodipodi:docname="GClef4.svg">
  <metadata
     id="metadata2826">
    <rdf:RDF>
      <cc:Work
         rdf:about="">
        <dc:format>image/svg+xml</dc:format>
        <dc:type
           rdf:resource="http://purl.org/dc/dcmitype/StillImage" />
        <dc:title></dc:title>
      </cc:Work>
    </rdf:RDF>
  </metadata>
  <defs
     id="defs2824">
    <inkscape:perspective
       sodipodi:type="inkscape:persp3d"
       inkscape:vp_x="0 : 20.38402 : 1"
       inkscape:vp_y="0 : 1000 : 0"
       inkscape:vp_z="15.185678 : 20.38402 : 1"
       inkscape:persp3d-origin="7.5928388 : 13.589347 : 1"
       id="perspective2828" />
  </defs>
  <sodipodi:namedview
     pagecolor="#ffffff"
     bordercolor="#666666"
     borderopacity="1"
     objecttolerance="10"
     gridtolerance="10"
     guidetolerance="10"
     inkscape:pageopacity="0"
     inkscape:pageshadow="2"
     inkscape:window-width="696"
     inkscape:window-height="771"
     id="namedview2822"
     showgrid="false"
     inkscape:zoom="2.56"
     inkscape:cx="21.698208"
     inkscape:cy="165.21665"
     inkscape:window-x="579"
     inkscape:window-y="163"
     inkscape:window-maximized="0"
     inkscape:current-layer="svg2818"
     units="in"
     borderlayer="false" />
  <path
     d="m 59.441081,-106.40796 c 1.473454,15.413014 -9.778258,27.887564 -19.740538,37.972451 -4.525899,4.422017 -0.750189,0.72972 -3.116202,2.929419 -0.494531,-2.364032 -1.445379,-8.538002 -1.35654,-10.406022 0.631718,-13.28116 11.230653,-32.478458 20.516192,-39.560048 1.495479,2.84349 2.728627,3.07266 3.697088,9.0642 z m 3.151601,79.587462 c -5.966876,-4.46576 -13.799048,-5.637225 -20.981577,-4.363239 -0.92631,-6.18602 -1.852563,-12.372027 -2.778873,-18.558048 11.381757,-11.484002 23.753573,-24.810396 24.404607,-42.101985 0.284413,-11.00457 -1.33736,-23.03285 -8.127086,-31.96736 -8.230644,0.63172 -14.035487,10.62915 -18.404142,16.84531 -7.208042,13.166578 -5.525746,29.173639 -2.759645,43.36997 -3.918398,4.693396 -9.341161,8.596798 -13.203635,13.480175 C 9.3360833,-38.732687 -0.59975869,-23.342282 1.3552423,-6.3416582 2.2429192,10.096582 13.89108,25.382978 29.773897,29.292369 c 6.030632,1.549889 12.412484,1.702186 18.513167,0.485487 1.064761,11.09353 4.972162,22.826274 0.447811,33.591146 -3.392402,7.882139 -13.494975,14.814456 -20.974319,10.80704 -2.901641,-1.554405 -0.550291,-0.250273 -2.314315,-1.237811 5.179359,-1.269463 9.680613,-5.111008 10.941349,-7.716307 4.055827,-7.21877 -1.935685,-17.942906 -10.434631,-16.56036 -10.95069,0.230658 -15.445505,15.485389 -8.402401,23.09918 6.520021,7.496191 18.556153,6.469468 26.288008,1.567992 C 52.61545,67.510588 53.710701,55.859224 52.708244,45.905504 52.37189,42.564501 50.76051,32.740444 50.56105,29.206448 53.936395,27.98221 51.574105,28.915466 56.335489,26.994659 69.214021,21.800708 77.430872,5.997194 73.735225,-8.1237575 72.19482,-15.366649 68.68256,-22.490439 62.592682,-26.820498 z M 65.308568,1.5646159 C 66.344769,11.385657 60.207392,22.872673 50.40255,26.019212 49.742896,22.100734 49.568995,21.036318 49.129424,18.75217 46.794915,6.6183703 45.527595,-5.8411246 43.72669,-18.13777 c 7.866489,-0.827698 16.738932,2.679142 19.475499,10.7723882 1.179922,2.8419817 1.65693,5.9010555 2.106379,8.9299977 z M 40.381444,27.183138 C 28.064871,27.881178 16.177895,19.319075 13.105071,7.0661385 9.4789964,-3.5509559 10.547441,-15.764675 17.07806,-25.006764 c 5.398565,-8.390227 12.618521,-15.305978 19.503087,-22.398113 0.885923,5.55882 1.771857,11.116135 2.657741,16.674956 C 24.760781,-26.873266 15.010841,-7.4317211 23.674618,6.0077638 26.252248,9.7754329 33.243022,16.96859 37.06283,14.063291 31.727982,10.699643 27.364459,4.9011139 28.302809,-1.8457653 27.905203,-8.1689779 34.934475,-16.195866 41.13812,-17.6146 c 2.122414,14.1465709 4.556886,29.947074 6.679349,44.093657 -2.446669,0.492996 -4.943553,0.704081 -7.436025,0.704081 z"
     id="path2820" />
</svg>
