<?xml version="1.0" encoding="UTF-8" standalone="no"?>
<!-- Created with Inkscape (http://www.inkscape.org/) -->

<svg
   xmlns:svg="http://www.w3.org/2000/svg"
   xmlns="http://www.w3.org/2000/svg"
   version="1.1"
   width="15.185678"
   height="40.76804"
   id="svg2818">
  <defs
     id="defs2824" />
  <path
     d="m 39.546617,-30.023798 c 1.003283,10.223681 -6.658088,18.497565 -13.44147,25.1858669 -3.081718,2.9339458 -0.510807,0.4846189 -2.121845,1.943516 -0.336726,-1.5685153 -0.984167,-5.6626834 -0.923678,-6.9016544 0.430145,-8.8097495 7.647032,-21.5427345 13.969616,-26.2390565 1.018283,1.885993 1.857937,2.037737 2.517377,6.011328 z m 2.145941,52.78862 C 37.629675,19.802099 32.296696,19.025477 27.406062,19.870608 26.775332,15.767545 26.144636,11.664481 25.51391,7.5614209 33.263823,-0.05514522 41.687876,-8.8941645 42.131173,-20.36355 c 0.193662,-7.299021 -0.910623,-15.276528 -5.533791,-21.202953 -5.604303,0.419344 -9.556856,7.050549 -12.531505,11.172839 -4.908009,8.733228 -3.762518,19.349858 -1.879065,28.766701 -2.668057,3.112374 -6.360457,5.701502 -8.99044,8.9402329 C 5.4297802,14.863321 -1.3356036,25.071599 -0.00442802,36.347779 0.5999955,47.250788 8.5313078,57.389836 19.346027,59.982985 c 4.106295,1.027582 8.451742,1.128926 12.605736,0.321106 0.725005,7.35838 3.38558,15.140189 0.304917,22.280605 -2.309904,5.227769 -9.188815,9.82618 -14.281549,7.16808 -1.97575,-1.031211 -0.374702,-0.165987 -1.575835,-0.821721 3.526662,-0.841468 6.591597,-3.38962 7.450042,-5.11769 2.761636,-4.788312 -1.318023,-11.901094 -7.10501,-10.984178 -7.4564031,0.152989 -10.5169566,10.271163 -5.721257,15.321164 4.439527,4.972068 12.635012,4.2912 17.899685,1.039973 5.976233,-3.858741 6.722006,-11.58715 6.039425,-18.189182 -0.229031,-2.215273 -1.326231,-8.7311 -1.46204,-11.075812 2.298298,-0.812199 0.689798,-0.193205 3.931852,-1.466776 8.769083,-3.444759 14.363988,-13.927447 11.847602,-23.293338 -1.048874,-4.803419 -3.440396,-9.528519 -7.587037,-12.400394 z m 1.849267,18.826947 c 0.705557,6.51334 -3.473426,14.132329 -10.14961,16.220159 -0.449163,-2.599758 -0.567568,-3.305613 -0.866881,-4.82079 -1.589579,-8.04719 -2.452505,-16.311622 -3.678757,-24.46742 5.356347,-0.549572 11.397651,1.77647 13.260996,7.14473 0.803423,1.88491 1.128216,3.913647 1.434252,5.923321 z M 26.568782,58.583968 C 18.182338,59.046616 10.088417,53.367973 7.9961077,45.240171 5.5270893,38.19878 6.2545995,30.098019 10.701345,23.967983 14.377267,18.402328 19.293384,13.815888 23.981127,9.1114582 c 0.603235,3.6866628 1.206474,7.3732898 1.809677,11.0599508 -9.858241,2.557798 -16.4970445,15.452825 -10.597817,24.366768 1.755123,2.499324 6.51519,7.270272 9.116127,5.343601 -3.63254,-2.231527 -6.603695,-6.077581 -5.964759,-10.551817 -0.270733,-4.19398 4.515541,-9.518449 8.739649,-10.459367 1.445166,9.383191 3.102814,19.862534 4.548012,29.245728 -1.665955,0.327094 -3.366097,0.467551 -5.063234,0.467646 z"
     id="path2820" />
</svg>
