<?xml version="1.0" encoding="UTF-8" standalone="no"?>
<!-- Created with Inkscape (http://www.inkscape.org/) -->

<svg
   xmlns:svg="http://www.w3.org/2000/svg"
   xmlns="http://www.w3.org/2000/svg"
   version="1.1"
   width="50.057709"
   height="133.32205"
   id="svg2818">
  <defs
     id="defs2824" />
  <path
     d="m 40.207961,-67.610378 c 1.003283,10.223681 -6.658088,18.497565 -13.44147,25.185867 -3.081718,2.933946 -0.510807,0.484619 -2.121845,1.943516 -0.336726,-1.568515 -0.984167,-5.662683 -0.923678,-6.901654 0.430145,-8.80975 7.647032,-21.542735 13.969616,-26.239057 1.018283,1.885993 1.857937,2.037737 2.517377,6.011328 z m 2.145941,52.78862 c -4.062883,-2.962723 -9.395862,-3.739345 -14.286496,-2.894214 -0.63073,-4.103063 -1.261426,-8.206127 -1.892152,-12.309187 7.749913,-7.616566 16.173966,-16.455585 16.617263,-27.924971 0.193662,-7.299021 -0.910623,-15.276528 -5.533791,-21.202953 -5.604303,0.419344 -9.556856,7.050549 -12.531505,11.172839 -4.908009,8.733228 -3.762518,19.349858 -1.879065,28.766701 -2.668057,3.112374 -6.360457,5.701502 -8.99044,8.940233 C 6.0911255,-22.723259 -0.67425842,-12.514981 0.65691719,-1.2388008 1.2613407,9.6642082 9.1926531,19.803256 20.007371,22.396407 c 4.106295,1.02758 8.451742,1.12892 12.605736,0.3211 0.725005,7.35838 3.38558,15.14019 0.304917,22.28061 -2.309904,5.22777 -9.188815,9.82618 -14.281549,7.16808 -1.97575,-1.03121 -0.374702,-0.16599 -1.575835,-0.82172 3.526662,-0.84147 6.591597,-3.38962 7.450042,-5.11769 2.761636,-4.78831 -1.318023,-11.9011 -7.10501,-10.98418 -7.4564018,0.15299 -10.5169553,10.27116 -5.721257,15.32116 4.439527,4.97207 12.635012,4.2912 17.899685,1.03998 5.976233,-3.85874 6.722006,-11.58715 6.039425,-18.18918 -0.229031,-2.21528 -1.326231,-8.7311 -1.46204,-11.07582 2.298298,-0.8122 0.689798,-0.1932 3.931852,-1.46677 C 46.86242,17.427215 52.457325,6.9445272 49.940939,-2.4213638 48.892065,-7.2247828 46.500543,-11.949883 42.353902,-14.821758 z M 44.203169,4.0051892 C 44.908726,10.518529 40.729743,18.137518 34.053559,20.225348 33.604396,17.62559 33.485991,16.919735 33.186678,15.404558 31.597099,7.3573682 30.734173,-0.90706382 29.507921,-9.0628618 c 5.356347,-0.549572 11.397651,1.77647 13.260996,7.14473 0.803423,1.88490998 1.128216,3.913647 1.434252,5.923321 z M 27.230126,20.997387 C 18.843682,21.460037 10.749761,15.781393 8.657453,7.6535912 6.1884346,0.61220018 6.9159448,-7.4885608 11.362689,-13.618597 c 3.675922,-5.565655 8.592039,-10.152095 13.279782,-14.856524 0.603235,3.686662 1.206474,7.373289 1.809677,11.05995 -9.858241,2.557798 -16.4970432,15.4528252 -10.597817,24.3667682 1.755123,2.499324 6.51519,7.2702718 9.116127,5.3436008 -3.63254,-2.231527 -6.603695,-6.0775808 -5.964759,-10.5518168 -0.270733,-4.19398 4.515541,-9.518449 8.739649,-10.459367 1.445166,9.38319098 3.102814,19.8625338 4.548012,29.2457278 -1.665955,0.327095 -3.366097,0.467555 -5.063234,0.467645 z"
     id="path2820" />
</svg>
