<?xml version="1.0" encoding="iso-8859-1" standalone="no"?>
<!-- Generator: Adobe Illustrator 10.0, SVG Export Plug-In . SVG Version: 3.0.0 Build 76)  -->
<!-- Created by Cary Bass http://commons.wikimedia.com/wiki/User:Bastique 20 January 2006 -->
<svg width="300" height="108.2">
	<rect y="0" x="0" stroke-width="0" fill="#FFFFFF" width="300" height="108.2" />
	<g id="half_notes_and_rest">
		<g id="d_half_note">
			<path d="M138.8,108.2h-1.5v-66h1.5V108.2z"/>
			<path d="M161.7,32c2.8,4.8-0.2,11.7-6.6,15.5c-6.4,3.8-13.9,3-16.7-1.8c-2.8-4.8,0.2-11.7,6.6-15.5
				C151.4,26.5,158.9,27.3,161.7,32z M139.4,45c1.1,2,6.7,0.9,12.5-2.5c0.1,0,0.1-0.1,0.2-0.1c0.1,0,0.2-0.1,0.2-0.1
				c5.7-3.4,9.4-7.7,8.2-9.6c-1.1-2-6.7-0.9-12.5,2.5c-0.1,0-0.1,0.1-0.2,0.1c0,0-0.1,0.1-0.1,0.1C142,38.7,138.3,43,139.4,45z"/>
		</g>
		<g id="a_half_note">
			<path d="M51.2,0h1.5v66h-1.5V0z"/>
			<path d="M28.3,76.1c-2.8-4.8,0.2-11.7,6.6-15.4s13.9-3,16.7,1.8c2.8,4.8-0.2,11.7-6.6,15.5C38.6,81.7,31.1,80.9,28.3,76.1z
				 M50.6,63.1c-1.1-2-6.7-0.9-12.5,2.5c-0.1,0-0.1,0.1-0.2,0.1c-0.1,0-0.2,0.1-0.2,0.1c-5.7,3.4-9.4,7.7-8.2,9.6
				c1.1,2,6.7,0.9,12.5-2.5c0.1,0,0.1-0.1,0.2-0.1c0,0,0.1-0.1,0.1-0.1C48,69.4,51.7,65.1,50.6,63.1z"/>
		</g>
		<path id="line_1" d="M300,90.1H0v-2h300V90.1z"/>
		<path id="line_2" d="M300,70.1H0v-2h300V70.1z"/>
		<path id="line_3" d="M300,50.1H0v-2h300V50.1z"/>
		<path id="line_4" d="M300,30.1H0v-2h300V30.1z"/>
		<path id="line_5" d="M300,10.1H0v-2h300V10.1z"/>
		<path id="rest" d="M272.5,48.1h-25v-10h25V48.1z"/>
	</g>
</svg>
