<?xml version="1.0" encoding="UTF-8" standalone="no"?>
<!-- Created with Inkscape (http://www.inkscape.org/) -->

<svg
   xmlns:svg="http://www.w3.org/2000/svg"
   xmlns="http://www.w3.org/2000/svg"
   version="1.1"
   width="74.699997"
   height="119.7"
   id="svg2">
  <defs
     id="defs25" />
  <path
     d="m 1.545477,9.599983 c -3.731029,-6.7441655 0.266502,-16.4389031 8.794566,-21.637531 8.528065,-5.198626 18.521891,-4.215104 22.25292,2.5290624 C 36.323992,-2.7643202 32.326462,6.9304175 23.798395,12.269549 15.27033,17.468175 5.276504,16.344148 1.545477,9.599983 z M 31.260454,-8.665465 c -1.465763,-2.81007 -8.92782,-1.2645309 -16.656379,3.5125863 -0.133251,0 -0.133251,0.1405033 -0.266502,0.1405033 -0.133251,0 -0.266502,0.1405036 -0.266502,0.1405036 C 6.475764,-0.09475495 1.545477,5.9468934 3.144488,8.6164588 4.61025,11.426528 12.072306,9.8809902 19.800865,5.1038727 c 0.133251,0 0.133251,-0.1405034 0.266502,-0.1405034 0,0 0.133251,-0.1405036 0.133251,-0.1405036 C 27.795926,0.18625202 32.726215,-5.855396 31.260454,-8.665465 z"
     id="path15" />
</svg>
