<?xml version="1.0" encoding="UTF-8" standalone="no"?>
<!-- Created with Inkscape (http://www.inkscape.org/) -->
<svg
   xmlns:dc="http://purl.org/dc/elements/1.1/"
   xmlns:cc="http://creativecommons.org/ns#"
   xmlns:rdf="http://www.w3.org/1999/02/22-rdf-syntax-ns#"
   xmlns:svg="http://www.w3.org/2000/svg"
   xmlns="http://www.w3.org/2000/svg"
   xmlns:sodipodi="http://sodipodi.sourceforge.net/DTD/sodipodi-0.dtd"
   xmlns:inkscape="http://www.inkscape.org/namespaces/inkscape"
   version="1.0"
   width="736.06335"
   height="79.242668"
   id="svg2"
   sodipodi:version="0.32"
   inkscape:version="0.46"
   sodipodi:docname="Music_rests.svg"
   inkscape:output_extension="org.inkscape.output.svg.inkscape">
  <metadata
     id="metadata56">
    <rdf:RDF>
      <cc:Work
         rdf:about="">
        <dc:format>image/svg+xml</dc:format>
        <dc:type
           rdf:resource="http://purl.org/dc/dcmitype/StillImage" />
      </cc:Work>
    </rdf:RDF>
  </metadata>
  <sodipodi:namedview
     inkscape:window-height="974"
     inkscape:window-width="1329"
     inkscape:pageshadow="2"
     inkscape:pageopacity="0.0"
     guidetolerance="10.0"
     gridtolerance="10.0"
     objecttolerance="10.0"
     borderopacity="1.0"
     bordercolor="#666666"
     pagecolor="#ffffff"
     id="base"
     showgrid="false"
     inkscape:zoom="1.3292869"
     inkscape:cx="404.42656"
     inkscape:cy="164.47922"
     inkscape:window-x="61"
     inkscape:window-y="25"
     inkscape:current-layer="svg2" />
  <g
     id="g96"
     style="fill:#000000;fill-rule:evenodd;stroke:#000000;stroke-width:0;stroke-linecap:butt;stroke-linejoin:round;stroke-miterlimit:10"
     transform="matrix(1.8,0,0,1.8,-599.57011,-123.61082)">
    <path
       id="path98"
       style="fill:#000000;stroke:#000000"
       d="M 388.059,73.968 L 388,74.027 L 388,76.398 L 388.02,78.788 L 388.059,78.831 L 388.102,78.87 L 389.496,78.89 L 390.871,78.89 L 390.93,78.831 L 390.988,78.769 L 390.988,76.398 L 390.988,74.007 L 390.93,73.968 L 390.891,73.91 L 389.496,73.91 L 388.121,73.91 L 388.059,73.968 z" />
  </g>
  <text
     xml:space="preserve"
     id="text3114"
     style="font-size:14px;font-style:normal;font-weight:normal;text-align:center;text-anchor:middle;fill:#000000;fill-opacity:1;stroke:none;stroke-width:1px;stroke-linecap:butt;stroke-linejoin:miter;stroke-opacity:1;font-family:Serif"
     y="59.90966"
     x="101.52496"><tspan
       id="tspan3116"
       y="59.90966"
       x="103.27496"
       style="font-size:11px"><tspan
         style="font-size:12px"
         id="tspan2571">Breve </tspan></tspan></text>
  <g
     id="g3002"
     style="fill:#000000;fill-rule:evenodd;stroke:#000000;stroke-width:0;stroke-linecap:butt;stroke-linejoin:round;stroke-miterlimit:10"
     transform="matrix(1.8,0,0,1.8,-705.70228,-126.85077)">
    <path
       id="path3004"
       style="fill:#000000;stroke:#000000"
       d="M 480.059,75.843 L 480,75.902 L 480,77.335 L 480.02,78.788 L 480.059,78.831 L 480.102,78.87 L 483.727,78.89 L 487.352,78.89 L 487.414,78.831 L 487.473,78.769 L 487.473,77.335 L 487.473,75.882 L 487.414,75.843 L 487.371,75.781 L 483.746,75.781 L 480.121,75.781 L 480.059,75.843 z" />
  </g>
  <text
     xml:space="preserve"
     id="text3120"
     style="font-size:14px;font-style:normal;font-weight:normal;text-align:center;text-anchor:middle;fill:#000000;fill-opacity:1;stroke:none;stroke-width:1px;stroke-linecap:butt;stroke-linejoin:miter;stroke-opacity:1;font-family:Serif"
     y="59.90966"
     x="164.64842"><tspan
       style="font-size:12px"
       id="tspan2534"><tspan
         style="font-size:11px"
         id="tspan2551"><tspan
           style="font-size:12px"
           id="tspan2569">Semibreve </tspan></tspan></tspan></text>
  <g
     id="g104"
     style="fill:#000000;fill-rule:evenodd;stroke:#000000;stroke-width:0;stroke-linecap:butt;stroke-linejoin:round;stroke-miterlimit:10"
     transform="matrix(1.8,0,0,1.8,-643.76504,-123.39073)">
    <path
       id="path106"
       style="fill:#000000;stroke:#000000"
       d="M 480.059,75.843 L 480,75.902 L 480,77.335 L 480.02,78.788 L 480.059,78.831 L 480.102,78.87 L 483.727,78.89 L 487.352,78.89 L 487.414,78.831 L 487.473,78.769 L 487.473,77.335 L 487.473,75.882 L 487.414,75.843 L 487.371,75.781 L 483.746,75.781 L 480.121,75.781 L 480.059,75.843 z" />
  </g>
  <text
     xml:space="preserve"
     id="text3126"
     style="font-size:14px;font-style:normal;font-weight:normal;text-align:center;text-anchor:middle;fill:#000000;fill-opacity:1;stroke:none;stroke-width:1px;stroke-linecap:butt;stroke-linejoin:miter;stroke-opacity:1;font-family:Serif"
     y="59.94384"
     x="226.86107"><tspan
       id="tspan3128"
       y="59.94384"
       x="228.61107"><tspan
         style="font-size:11px"
         id="tspan2553"><tspan
           style="font-size:12px"
           id="tspan2567">Minim </tspan></tspan></tspan></text>
  <g
     id="g124"
     style="fill:#000000;fill-rule:evenodd;stroke:#000000;stroke-width:0;stroke-linecap:butt;stroke-linejoin:round;stroke-miterlimit:10"
     transform="matrix(1.8,0,0,1.8,-634.15084,-123.07351)">
    <path
       id="path126"
       style="fill:#000000;stroke:#000000"
       d="M 512.254,71.019 C 512.117,71.077 512.035,71.277 512.098,71.417 C 512.117,71.437 512.316,71.675 512.516,71.937 C 512.973,72.452 513.051,72.574 513.152,72.812 C 513.551,73.628 513.332,74.667 512.633,75.324 C 512.574,75.402 512.316,75.62 512.074,75.8 C 511.379,76.398 511.059,76.738 510.941,77.038 C 510.898,77.117 510.898,77.195 510.898,77.316 C 510.879,77.593 510.898,77.617 511.719,78.57 C 512.832,79.906 513.629,80.843 513.691,80.902 L 513.75,80.96 L 513.672,80.921 C 512.574,80.464 511.34,80.245 510.922,80.445 C 510.781,80.503 510.699,80.585 510.641,80.722 C 510.48,81.062 510.523,81.562 510.762,82.296 C 510.98,82.956 511.418,83.831 511.855,84.488 C 512.035,84.769 512.375,85.206 512.414,85.226 C 512.473,85.285 512.555,85.265 512.613,85.226 C 512.672,85.148 512.672,85.085 512.555,84.949 C 512.137,84.351 511.938,83.113 512.176,82.456 C 512.273,82.16 512.395,81.999 512.613,81.898 C 513.191,81.64 514.469,81.96 515.004,82.495 C 515.043,82.535 515.125,82.617 515.164,82.636 C 515.305,82.695 515.504,82.617 515.563,82.476 C 515.645,82.335 515.602,82.238 515.422,82.019 C 515.086,81.62 514.07,80.425 513.93,80.245 C 513.57,79.827 513.41,79.429 513.371,78.929 C 513.352,78.292 513.609,77.617 514.09,77.175 C 514.148,77.097 514.406,76.878 514.645,76.699 C 515.383,76.081 515.684,75.742 515.801,75.421 C 515.883,75.163 515.844,74.925 515.664,74.706 C 515.602,74.648 514.906,73.788 514.09,72.812 C 512.973,71.499 512.574,71.019 512.516,70.999 C 512.434,70.98 512.336,70.98 512.254,71.019 z" />
  </g>
  <text
     xml:space="preserve"
     id="text3132"
     style="font-size:14px;font-style:normal;font-weight:normal;text-align:center;text-anchor:middle;fill:#000000;fill-opacity:1;stroke:none;stroke-width:1px;stroke-linecap:butt;stroke-linejoin:miter;stroke-opacity:1;font-family:Serif"
     y="59.94384"
     x="289.36905"><tspan
       id="tspan3134"
       y="59.94384"
       x="291.11905"><tspan
         style="font-size:11px"
         id="tspan2555"><tspan
           style="font-size:12px"
           id="tspan2557">Crotchet </tspan></tspan></tspan></text>
  <g
     id="g128"
     style="fill:#000000;fill-rule:evenodd;stroke:#000000;stroke-width:0;stroke-linecap:butt;stroke-linejoin:round;stroke-miterlimit:10"
     transform="matrix(1.8,0,0,1.8,-593.78902,-125.03955)">
    <path
       id="path130"
       style="fill:#000000;stroke:#000000"
       d="M 531.098,74.847 C 530.578,74.945 530.18,75.304 530,75.8 C 529.961,75.96 529.961,75.999 529.961,76.218 C 529.961,76.519 529.98,76.679 530.121,76.917 C 530.32,77.316 530.738,77.636 531.215,77.753 C 531.715,77.894 532.551,77.773 533.508,77.456 L 533.746,77.374 L 532.57,80.624 L 531.414,83.87 C 531.414,83.87 531.453,83.89 531.516,83.933 C 531.633,84.011 531.832,84.07 531.973,84.07 C 532.211,84.07 532.512,83.933 532.551,83.812 C 532.551,83.773 533.109,81.878 533.785,79.628 L 534.98,75.503 L 534.941,75.445 C 534.844,75.324 534.645,75.285 534.523,75.382 C 534.484,75.421 534.422,75.503 534.383,75.562 C 534.203,75.863 533.746,76.398 533.508,76.597 C 533.289,76.777 533.168,76.796 532.969,76.718 C 532.789,76.62 532.73,76.519 532.609,75.98 C 532.492,75.445 532.352,75.202 532.051,75.003 C 531.773,74.824 531.414,74.765 531.098,74.847 z" />
  </g>
  <text
     xml:space="preserve"
     id="text3138"
     style="font-size:14px;font-style:normal;font-weight:normal;text-align:center;text-anchor:middle;fill:#000000;fill-opacity:1;stroke:none;stroke-width:1px;stroke-linecap:butt;stroke-linejoin:miter;stroke-opacity:1;font-family:Serif"
     y="59.94384"
     x="364.4147"><tspan
       id="tspan3140"
       y="59.94384"
       x="366.1647"><tspan
         style="font-size:12px"
         id="tspan2565">Quaver </tspan></tspan></text>
  <g
     id="g88"
     style="fill:#000000;fill-rule:evenodd;stroke:#000000;stroke-width:0;stroke-linecap:butt;stroke-linejoin:round;stroke-miterlimit:10"
     transform="matrix(1.8,0,0,1.8,-544.6617,-122.78886)">
    <path
       id="path90"
       style="fill:#000000;stroke:#000000"
       d="M 544.191,74.847 C 543.672,74.945 543.273,75.304 543.098,75.8 C 543.055,75.96 543.055,75.999 543.055,76.218 C 543.055,76.519 543.074,76.679 543.215,76.917 C 543.414,77.316 543.832,77.636 544.313,77.753 C 544.809,77.894 545.605,77.792 546.563,77.476 C 546.703,77.417 546.82,77.374 546.82,77.394 C 546.82,77.417 545.926,80.324 545.887,80.425 C 545.785,80.683 545.445,81.16 545.148,81.46 C 544.871,81.738 544.73,81.8 544.512,81.699 C 544.332,81.601 544.273,81.499 544.152,80.96 C 544.051,80.562 543.973,80.343 543.813,80.187 C 543.395,79.726 542.676,79.667 542.121,80.027 C 541.859,80.206 541.66,80.484 541.543,80.785 C 541.5,80.941 541.5,80.984 541.5,81.202 C 541.5,81.499 541.523,81.66 541.66,81.898 C 541.859,82.296 542.277,82.617 542.758,82.734 C 542.977,82.796 543.535,82.796 543.914,82.734 C 544.23,82.675 544.609,82.577 544.988,82.456 C 545.148,82.398 545.289,82.359 545.289,82.378 C 545.289,82.378 543.336,88.734 543.297,88.831 C 543.297,88.851 543.453,88.972 543.613,89.011 C 543.773,89.074 543.934,89.074 544.094,89.011 C 544.25,88.972 544.41,88.874 544.41,88.812 C 544.43,88.792 545.227,85.785 546.203,82.136 L 547.977,75.503 L 547.938,75.445 C 547.859,75.324 547.699,75.304 547.559,75.363 C 547.48,75.402 547.48,75.402 547.242,75.761 C 547.043,76.081 546.762,76.417 546.602,76.577 C 546.383,76.757 546.266,76.796 546.066,76.718 C 545.887,76.62 545.824,76.519 545.707,75.98 C 545.586,75.445 545.445,75.202 545.148,75.003 C 544.871,74.824 544.512,74.765 544.191,74.847 z" />
  </g>
  <text
     xml:space="preserve"
     id="text3144"
     style="font-size:14px;font-style:normal;font-weight:normal;text-align:center;text-anchor:middle;fill:#000000;fill-opacity:1;stroke:none;stroke-width:1px;stroke-linecap:butt;stroke-linejoin:miter;stroke-opacity:1;font-family:Serif"
     y="59.94384"
     x="435.46036"><tspan
       id="tspan3146"
       y="59.94384"
       x="437.21036"><tspan
         style="font-size:12px"
         id="tspan2563">Semiquaver </tspan></tspan></text>
  <g
     id="g92"
     style="fill:#000000;fill-rule:evenodd;stroke:#000000;stroke-width:0;stroke-linecap:butt;stroke-linejoin:round;stroke-miterlimit:10"
     transform="matrix(1.8,0,0,1.8,-459.97313,-122.63615)">
    <path
       id="path94"
       style="fill:#000000;stroke:#000000"
       d="M 553.789,69.863 C 553.273,69.964 552.871,70.324 552.695,70.82 C 552.652,70.98 552.652,71.019 552.652,71.238 C 552.652,71.456 552.652,71.538 552.695,71.656 C 552.832,72.097 553.113,72.433 553.551,72.632 C 553.848,72.792 553.988,72.812 554.406,72.812 C 554.926,72.812 555.363,72.734 556.063,72.515 C 556.242,72.452 556.379,72.413 556.379,72.413 C 556.398,72.413 556.219,73.113 555.98,73.949 C 555.684,75.124 555.563,75.503 555.523,75.62 C 555.363,75.921 555.023,76.378 554.805,76.577 C 554.605,76.757 554.488,76.796 554.289,76.718 C 554.109,76.62 554.047,76.519 553.93,75.98 C 553.828,75.581 553.75,75.363 553.59,75.202 C 553.172,74.745 552.453,74.687 551.898,75.046 C 551.637,75.222 551.438,75.503 551.32,75.8 C 551.277,75.96 551.277,75.999 551.277,76.218 C 551.277,76.519 551.301,76.679 551.438,76.917 C 551.637,77.316 552.055,77.636 552.535,77.753 C 552.754,77.816 553.313,77.816 553.691,77.753 C 554.008,77.695 554.387,77.593 554.766,77.476 C 554.945,77.417 555.086,77.374 555.086,77.374 C 555.086,77.394 554.289,80.425 554.246,80.484 C 554.09,80.824 553.77,81.242 553.531,81.48 C 553.273,81.738 553.133,81.781 552.914,81.699 C 552.734,81.601 552.672,81.499 552.555,80.96 C 552.453,80.562 552.375,80.343 552.215,80.187 C 551.797,79.726 551.078,79.667 550.523,80.027 C 550.262,80.206 550.063,80.484 549.945,80.785 C 549.902,80.941 549.902,80.984 549.902,81.202 C 549.902,81.421 549.902,81.499 549.945,81.62 C 550.082,82.058 550.363,82.398 550.801,82.597 C 551.121,82.757 551.238,82.777 551.676,82.777 C 551.996,82.777 552.098,82.777 552.355,82.734 C 552.715,82.675 553.094,82.558 553.512,82.437 L 553.77,82.335 L 553.77,82.398 C 553.75,82.476 552.074,88.773 552.055,88.812 C 552.035,88.894 552.395,89.05 552.613,89.05 C 552.832,89.05 553.152,88.913 553.172,88.812 C 553.191,88.792 554.148,84.667 555.344,79.648 C 557.477,70.562 557.477,70.542 557.438,70.48 C 557.375,70.402 557.277,70.363 557.156,70.363 C 557.016,70.382 556.957,70.441 556.816,70.679 C 556.539,71.16 556.219,71.577 556.043,71.718 C 555.922,71.796 555.82,71.796 555.664,71.738 C 555.484,71.636 555.422,71.538 555.305,70.999 C 555.184,70.46 555.043,70.222 554.746,70.023 C 554.469,69.843 554.109,69.785 553.789,69.863 z" />
  </g>
  <text
     xml:space="preserve"
     id="text3150"
     style="font-size:14px;font-style:normal;font-weight:normal;text-align:center;text-anchor:middle;fill:#000000;fill-opacity:1;stroke:none;stroke-width:1px;stroke-linecap:butt;stroke-linejoin:miter;stroke-opacity:1;font-family:Serif"
     y="59.94384"
     x="536.50598"><tspan
       id="tspan3152"
       y="59.94384"
       x="538.25598"><tspan
         style="font-size:12px"
         id="tspan2561">Demisemiquaver </tspan></tspan></text>
  <path
     id="path110"
     style="fill:#000000;fill-rule:evenodd;stroke:#000000;stroke-width:0;stroke-linecap:butt;stroke-linejoin:round;stroke-miterlimit:10"
     d="M 668.67281,2.1429712 C 667.73861,2.3247712 667.02041,2.9727712 666.70361,3.8655712 C 666.62621,4.1535712 666.62621,4.2237712 666.62621,4.6179712 C 666.62621,5.0103712 666.62621,5.1579712 666.70361,5.3703712 C 666.95021,6.1641712 667.45601,6.7689712 668.24441,7.1271712 C 668.81321,7.4151712 669.03101,7.4511712 669.81941,7.4511712 C 670.36121,7.4511712 670.57181,7.4511712 671.00741,7.3809712 C 671.57621,7.2747712 672.36461,7.0569712 672.97661,6.8463712 L 673.37081,6.6987712 L 673.33481,6.8463712 C 673.30061,6.9165712 673.04681,8.1675712 672.72281,9.6021712 C 672.15401,12.113171 672.11801,12.260771 671.93621,12.582971 C 671.54201,13.405571 670.97321,14.193971 670.57181,14.447771 C 670.36121,14.588171 670.17761,14.588171 669.93101,14.481971 C 669.60881,14.305571 669.49541,14.123771 669.28481,13.153571 C 669.10121,12.435371 668.96081,12.042971 668.67281,11.753171 C 667.92041,10.930571 666.62621,10.826171 665.62181,11.472371 C 665.15741,11.789171 664.79921,12.294971 664.58861,12.829571 C 664.51121,13.117571 664.51121,13.187771 664.51121,13.581971 C 664.51121,14.123771 664.54541,14.411771 664.79921,14.840171 C 665.15741,15.558371 665.90981,16.134371 666.77561,16.344971 C 667.16801,16.458371 668.17421,16.458371 668.85641,16.344971 C 669.42521,16.240571 670.10741,16.056971 670.78961,15.846371 C 671.11361,15.740171 671.33141,15.662771 671.36561,15.662771 C 671.36561,15.698771 670.14341,21.084371 670.07321,21.260771 C 669.85361,21.725171 669.28481,22.625171 668.85641,23.087771 C 668.38481,23.517971 668.17421,23.595371 667.78001,23.447771 C 667.45601,23.271371 667.34441,23.087771 667.13381,22.117571 C 666.95021,21.401171 666.80981,21.006971 666.52181,20.726171 C 665.76941,19.896371 664.47521,19.790171 663.47081,20.438171 C 663.00641,20.760371 662.64821,21.260771 662.42861,21.802571 C 662.35841,22.083371 662.35841,22.160771 662.35841,22.553171 C 662.35841,23.087771 662.39441,23.377571 662.64821,23.805971 C 663.00641,24.522371 663.75881,25.100171 664.62281,25.310771 C 665.55161,25.562771 667.09781,25.352171 668.85641,24.776171 C 669.10121,24.669971 669.35501,24.592571 669.35501,24.592571 C 669.35501,24.635771 669.06701,25.816571 668.74301,27.285371 C 668.20841,29.796371 668.17421,29.978171 667.99061,30.294971 C 667.70261,30.906971 667.06361,31.772771 666.62621,32.165171 C 666.26801,32.489171 666.02321,32.559371 665.66321,32.411771 C 665.34101,32.235371 665.22761,32.053571 665.01701,31.090571 C 664.83341,30.372371 664.69301,29.978171 664.40501,29.690171 C 663.65261,28.860371 662.35841,28.755971 661.35401,29.402171 C 660.88961,29.726171 660.53141,30.224771 660.32081,30.766571 C 660.24341,31.054571 660.24341,31.124771 660.24341,31.518971 C 660.24341,32.053571 660.27761,32.341571 660.53141,32.769971 C 660.88961,33.488171 661.64201,34.064171 662.50601,34.281971 C 663.43481,34.528571 665.22761,34.281971 666.98621,33.669971 C 667.20401,33.599771 667.34441,33.565571 667.34441,33.565571 C 667.34441,33.599771 664.83341,44.856971 664.72901,45.215171 C 664.72901,45.292571 664.76321,45.328571 664.90361,45.398771 C 665.12321,45.539171 665.48141,45.652571 665.73341,45.652571 C 665.98001,45.652571 666.33821,45.539171 666.55601,45.398771 C 666.70361,45.328571 666.73961,45.292571 666.77561,45.110771 C 666.77561,45.004571 668.67281,35.568971 671.00741,24.128171 C 674.69921,5.6925712 675.16361,3.3309712 675.12761,3.2535712 C 675.02321,3.0771712 674.88101,3.0069712 674.66321,3.0069712 C 674.34101,3.0069712 674.27081,3.0771712 673.94681,3.6891712 C 673.48241,4.5819712 673.01081,5.2281712 672.68861,5.4819712 C 672.51221,5.6223712 672.32861,5.6223712 672.04781,5.5179712 C 671.72561,5.3343712 671.61221,5.1579712 671.40161,4.1877712 C 671.18381,3.2175712 670.93001,2.7891712 670.39541,2.4309712 C 669.88961,2.1069712 669.25061,2.0025712 668.67281,2.1429712 z" />
  <text
     xml:space="preserve"
     id="text3156"
     style="font-size:14px;font-style:normal;font-weight:normal;text-align:center;text-anchor:middle;fill:#000000;fill-opacity:1;stroke:none;stroke-width:1px;stroke-linecap:butt;stroke-linejoin:miter;stroke-opacity:1;font-family:Serif"
     y="42.44384"
     x="667.55164"><tspan
       id="tspan3158"
       y="42.44384"
       x="667.55164" /><tspan
       id="tspan3160"
       y="59.94384"
       x="669.30164"><tspan
         style="font-size:12px"
         id="tspan2559">Hemidemisemiquaver </tspan></tspan></text>
  <defs
     id="defs19">
    <inkscape:perspective
       sodipodi:type="inkscape:persp3d"
       inkscape:vp_x="0 : 30.096807 : 1"
       inkscape:vp_y="0 : 1000 : 0"
       inkscape:vp_z="574.5 : 30.096807 : 1"
       inkscape:persp3d-origin="287.25 : 20.064538 : 1"
       id="perspective58" />
    <inkscape:perspective
       id="perspective2543"
       inkscape:persp3d-origin="372.04724 : 350.78739 : 1"
       inkscape:vp_z="744.09448 : 526.18109 : 1"
       inkscape:vp_y="0 : 1000 : 0"
       inkscape:vp_x="0 : 526.18109 : 1"
       sodipodi:type="inkscape:persp3d" />
  </defs>
  <path
     id="path62"
     style="stroke:#000000;stroke-width:1;stroke-miterlimit:4;stroke-dasharray:none"
     d="M 0.5,36.383262 L 718.04021,36.383262" />
  <path
     id="path66"
     style="stroke:#000000;stroke-width:1;stroke-miterlimit:4;stroke-dasharray:none"
     d="M 0.5,27.412447 L 718.04021,27.412447" />
  <path
     id="path70"
     style="stroke:#000000;stroke-width:1;stroke-miterlimit:4;stroke-dasharray:none"
     d="M 0.5,18.441631 L 718.04021,18.441631" />
  <path
     id="path74"
     style="stroke:#000000;stroke-width:1;stroke-miterlimit:4;stroke-dasharray:none"
     d="M 0.5,9.4708156 L 718.04021,9.4708156" />
  <path
     id="path78"
     style="stroke:#000000;stroke-width:1;stroke-miterlimit:4;stroke-dasharray:none"
     d="M 0.5,0.5 L 718.04021,0.5" />
  <g
     id="g120"
     style="fill:#000000;fill-rule:evenodd;stroke:#000000;stroke-width:0;stroke-linecap:butt;stroke-linejoin:round;stroke-miterlimit:10"
     transform="matrix(1.8,0,0,1.8,-169.41575,-123.61043)">
    <path
       id="path122"
       style="fill:#000000;stroke:#000000"
       d="M 114.059,73.968 L 114,74.027 L 114,78.89 L 114.02,83.773 L 114.059,83.812 L 114.102,83.851 L 115.496,83.87 L 116.871,83.87 L 116.93,83.812 L 116.988,83.753 L 116.988,78.89 L 116.988,74.007 L 116.93,73.968 L 116.891,73.91 L 115.496,73.91 L 114.121,73.91 L 114.059,73.968 z" />
  </g>
  <text
     xml:space="preserve"
     id="text3108"
     style="font-size:14px;font-style:normal;font-weight:normal;text-align:center;text-anchor:middle;fill:#000000;fill-opacity:1;stroke:none;stroke-width:1px;stroke-linecap:butt;stroke-linejoin:miter;stroke-opacity:1;font-family:Serif"
     y="59.90966"
     x="38.479309"><tspan
       id="tspan3110"
       y="59.90966"
       x="40.229309"><tspan
         style="font-size:12px"
         id="tspan2530"><tspan
           style="font-size:11px"
           id="tspan2549"><tspan
             style="font-size:12px"
             id="tspan2573">Long </tspan></tspan></tspan></tspan></text>
  <text
     xml:space="preserve"
     id="text2492"
     style="font-size:14px;font-style:normal;font-weight:normal;text-align:center;text-anchor:middle;fill:#000000;fill-opacity:1;stroke:none;stroke-width:1px;stroke-linecap:butt;stroke-linejoin:miter;stroke-opacity:1;font-family:Serif"
     y="77.90966"
     x="101.52496"><tspan
       id="tspan2494"
       y="77.90966"
       x="103.27496">2 </tspan></text>
  <text
     xml:space="preserve"
     id="text2496"
     style="font-size:14px;font-style:normal;font-weight:normal;text-align:center;text-anchor:middle;fill:#000000;fill-opacity:1;stroke:none;stroke-width:1px;stroke-linecap:butt;stroke-linejoin:miter;stroke-opacity:1;font-family:Serif"
     y="77.90966"
     x="164.64842"><tspan
   id="tspan2498"
   y="77.90966"
   x="166.39842">1  </tspan> </text>
  <text
     xml:space="preserve"
     id="text2500"
     style="font-size:14px;font-style:normal;font-weight:normal;text-align:center;text-anchor:middle;fill:#000000;fill-opacity:1;stroke:none;stroke-width:1px;stroke-linecap:butt;stroke-linejoin:miter;stroke-opacity:1;font-family:Serif"
     y="77.94384"
     x="226.86107"><tspan
       id="tspan2502"
       y="77.94384"
       x="228.61107">1/2 </tspan></text>
  <text
     xml:space="preserve"
     id="text2504"
     style="font-size:14px;font-style:normal;font-weight:normal;text-align:center;text-anchor:middle;fill:#000000;fill-opacity:1;stroke:none;stroke-width:1px;stroke-linecap:butt;stroke-linejoin:miter;stroke-opacity:1;font-family:Serif"
     y="77.94384"
     x="289.36905"><tspan
       id="tspan2506"
       y="77.94384"
       x="291.11905">1/4 </tspan></text>
  <text
     xml:space="preserve"
     id="text2508"
     style="font-size:14px;font-style:normal;font-weight:normal;text-align:center;text-anchor:middle;fill:#000000;fill-opacity:1;stroke:none;stroke-width:1px;stroke-linecap:butt;stroke-linejoin:miter;stroke-opacity:1;font-family:Serif"
     y="77.94384"
     x="364.4147"><tspan
       id="tspan2510"
       y="77.94384"
       x="366.1647">1/8 </tspan></text>
  <text
     xml:space="preserve"
     id="text2512"
     style="font-size:14px;font-style:normal;font-weight:normal;text-align:center;text-anchor:middle;fill:#000000;fill-opacity:1;stroke:none;stroke-width:1px;stroke-linecap:butt;stroke-linejoin:miter;stroke-opacity:1;font-family:Serif"
     y="77.94384"
     x="435.46036"><tspan
       id="tspan2514"
       y="77.94384"
       x="437.21036">1/16 </tspan></text>
  <text
     xml:space="preserve"
     id="text2516"
     style="font-size:14px;font-style:normal;font-weight:normal;text-align:center;text-anchor:middle;fill:#000000;fill-opacity:1;stroke:none;stroke-width:1px;stroke-linecap:butt;stroke-linejoin:miter;stroke-opacity:1;font-family:Serif"
     y="77.94384"
     x="536.50598"><tspan
       id="tspan2518"
       y="77.94384"
       x="538.25598">1/32 </tspan></text>
  <text
     xml:space="preserve"
     id="text2520"
     style="font-size:14px;font-style:normal;font-weight:normal;text-align:center;text-anchor:middle;fill:#000000;fill-opacity:1;stroke:none;stroke-width:1px;stroke-linecap:butt;stroke-linejoin:miter;stroke-opacity:1;font-family:Serif"
     y="60.44384"
     x="667.55164"><tspan
       id="tspan2522"
       y="60.44384"
       x="667.55164" /><tspan
       id="tspan2524"
       y="77.94384"
       x="669.30164">1/64 </tspan></text>
  <text
     xml:space="preserve"
     id="text2526"
     style="font-size:14px;font-style:normal;font-weight:normal;text-align:center;text-anchor:middle;fill:#000000;fill-opacity:1;stroke:none;stroke-width:1px;stroke-linecap:butt;stroke-linejoin:miter;stroke-opacity:1;font-family:Serif"
     y="77.90966"
     x="38.479309"><tspan
       id="tspan2528"
       y="77.90966"
       x="40.229309">4 </tspan></text>
</svg>
