<?xml version="1.0" encoding="UTF-8" standalone="no"?>
<!-- Created with Inkscape (http://www.inkscape.org/) -->

<svg
   xmlns:svg="http://www.w3.org/2000/svg"
   xmlns="http://www.w3.org/2000/svg"
   version="1.0"
   width="222.03134"
   height="140.28192"
   id="svg2">
  <defs
     id="defs4" />
  <g
     transform="translate(-427.0449,-183.12188)"
     id="layer1">
    <path
       d="m 458.73927,197.029 0,13.25561 0.85249,0 0.95898,0 1.60366,1.71022 c 10.38394,10.92737 15.16832,18.89775 16.02609,26.43131 0.10132,1.268 0.10132,4.34748 -0.10639,6.26016 -0.53807,4.99751 -1.91264,10.41057 -3.93192,15.07239 -0.20771,0.64467 -0.41555,1.16147 -0.41555,1.49713 0,0.41555 0.30902,1.268 0.72457,1.58234 0.3358,0.43687 1.27332,0.74592 1.81147,0.74592 0.41555,0 1.37457,-0.43686 1.71022,-0.74592 0.30903,-0.31445 0.72458,-1.37457 1.57703,-3.93721 2.77045,-8.386 3.83072,-17.08632 2.77045,-23.55429 -0.64464,-3.83071 -2.01921,-7.64008 -4.1397,-11.9876 -1.60366,-3.18604 -2.97827,-5.53558 -6.91019,-11.90766 -5.3065,-8.49254 -7.32574,-12.52567 -8.90809,-17.29409 -1.06023,-3.18601 -1.81147,-7.11797 -1.81147,-9.76054 l 0,-0.64468 -0.85245,0 -0.95902,0 0,13.27691 z"
       id="path2786"
       style="fill:#000000;fill-rule:evenodd;stroke:#000000;stroke-width:0;stroke-linecap:butt;stroke-linejoin:round;stroke-miterlimit:10" />
    <path
       d="m 459.67697,270.30778 1.33195,0 0,-85.76718 -1.33195,0 0,85.76718 z"
       id="path2790"
       style="fill:#000000;stroke:#000000;stroke-width:2.12316608;stroke-linecap:butt;stroke-linejoin:round;stroke-miterlimit:10" />
    <path
       d="m 448.33467,259.78004 c -4.3528,0.53807 -8.80156,2.32823 -12.63224,5.30649 -4.35283,3.18069 -7.32574,7.42696 -8.28476,11.77979 -0.2077,1.39056 -0.2077,3.82536 0.10638,4.89091 0.9537,3.72415 3.93193,6.05242 8.38597,7.0114 1.26804,0.2077 4.47536,0.2077 6.05774,0 4.03314,-0.75121 8.1782,-2.56264 11.77447,-5.20525 4.24627,-3.18072 7.22453,-7.42699 8.18351,-11.77982 0.20771,-1.39057 0.20771,-3.82533 -0.10638,-4.99212 -0.95902,-3.49506 -3.83072,-5.84997 -8.07699,-6.80363 -1.16147,-0.2077 -4.1397,-0.31445 -5.40774,-0.2077 z"
       id="path2792"
       style="fill:#000000;fill-rule:evenodd;stroke:#000000;stroke-width:0;stroke-linecap:butt;stroke-linejoin:round;stroke-miterlimit:10" />
  </g>
</svg>
