<?xml version="1.0" encoding="iso-8859-1" standalone="no"?>
<!-- Generator: Adobe Illustrator 10.0, SVG Export Plug-In . SVG Version: 3.0.0 Build 76)  -->
<!-- Created by Cary Bass http://commons.wikimedia.com/wiki/User:Bastique 20 January 2006 -->
<svg width="300" height="108.2">
	<rect y="0" x="0" stroke-width="0" fill="#FFFFFF" width="300" height="108.2" />
	<g id="quarter_notes_and_rest">
		<g id="d_quarter_note">
			<path d="M138.8,108.2h-1.5v-66h1.5V108.2z"/>
			<path d="M161.7,32c2.8,4.8-0.2,11.7-6.6,15.5c-6.4,3.8-13.9,3-16.7-1.8c-2.8-4.8,0.2-11.7,6.6-15.5
				C151.4,26.5,158.9,27.3,161.7,32z"/>
		</g>
		<g id="a_quarter_note">
			<path d="M51.2,0h1.5v66h-1.5V0z"/>
			<path d="M28.3,76.1c-2.8-4.8,0.2-11.7,6.6-15.4s13.9-3,16.7,1.8c2.8,4.8-0.2,11.7-6.6,15.5C38.6,81.7,31.1,80.9,28.3,76.1z"/>
		</g>
		<path id="line_1" d="M300,90.1H0v-2h300V90.1z"/>
		<path id="line_2" d="M300,70.1H0v-2h300V70.1z"/>
		<path id="line_3" d="M300,50.1H0v-2h300V50.1z"/>
		<path id="line_4" d="M300,30.1H0v-2h300V30.1z"/>
		<path id="line_5" d="M300,10.1H0v-2h300V10.1z"/>
		<path id="quarter_rest" d="M254.4,20.8c1.5,1.6,13,15.7,13,15.7s-6.4,6.1-6.4,12.5c0,7.5,8.6,14.3,8.6,14.3l-0.9,1.1c-3.3-1.9-8.9-2.1-11.4,0.8
			c-3.1,3.6,3.9,9.1,3.9,9.1l-0.8,1.1c-2.4-1.8-12.6-11.4-8.3-16.1c2.6-2.9,5.8-3.8,10.3-1.4l-12.1-12.5c7-8.6,8.2-11.1,8.2-13.4
			c0-4.8-3.4-8.2-5.1-10.4c-0.6-0.9-1.7-1.6-1-2.2C253.1,18.9,253.5,19.7,254.4,20.8z"/>
	</g>
</svg>
