<?xml version="1.0" encoding="UTF-8" standalone="no"?>
<!-- Created with Inkscape (http://www.inkscape.org/) -->

<svg
   xmlns:svg="http://www.w3.org/2000/svg"
   xmlns="http://www.w3.org/2000/svg"
   version="1.1"
   width="74.699997"
   height="119.7"
   id="svg2">
  <defs
     id="defs4" />
  <path
     d="m 28.76116,36.655668 c -7.962119,8.701929 -11.943172,15.203276 -11.943137,19.50415 -3.5e-5,4.150974 3.790138,10.377277 11.370518,18.679119 l -2.372265,3.07565 c -3.817478,-2.050469 -7.089561,-3.075757 -9.816283,-3.07565 -3.544786,-1.07e-4 -5.317173,1.950394 -5.31715,5.851182 -2.3e-5,4.000861 1.935963,7.976759 5.80797,11.927583 l -2.126867,2.925644 C 3.6205647,88.24172 -1.7511259,81.740371 -1.7511143,76.039195 c -1.16e-5,-2.900677 1.0906864,-5.20112 3.2720941,-6.90154 2.0177739,-1.600345 4.6354491,-2.400517 7.8530257,-2.400517 2.0723025,0 4.3627695,0.500162 6.8713975,1.500377 L -0.1968667,48.20813 C 7.6016067,41.906826 11.500849,36.205545 11.500861,31.104498 c -1.2e-5,-4.0509 -2.6449574,-9.151946 -7.9348254,-15.30335 l 6.5441884,0 18.650936,20.85452"
     id="path2829"
     style="font-size:144px;font-family:musica;-inkscape-font-specification:musica" />
</svg>
