<?xml version="1.0" encoding="UTF-8" standalone="no"?>
<!-- Created with Inkscape (http://www.inkscape.org/) -->

<svg
   xmlns:dc="http://purl.org/dc/elements/1.1/"
   xmlns:cc="http://creativecommons.org/ns#"
   xmlns:rdf="http://www.w3.org/1999/02/22-rdf-syntax-ns#"
   xmlns:svg="http://www.w3.org/2000/svg"
   xmlns="http://www.w3.org/2000/svg"
   xmlns:sodipodi="http://sodipodi.sourceforge.net/DTD/sodipodi-0.dtd"
   xmlns:inkscape="http://www.inkscape.org/namespaces/inkscape"
   version="1.0"
   width="74.699997"
   height="119.7"
   id="svg2"
   inkscape:version="0.47 r22583"
   sodipodi:docname="sharp.svg">
  <metadata
     id="metadata2908">
    <rdf:RDF>
      <cc:Work
         rdf:about="">
        <dc:format>image/svg+xml</dc:format>
        <dc:type
           rdf:resource="http://purl.org/dc/dcmitype/StillImage" />
        <dc:title></dc:title>
      </cc:Work>
    </rdf:RDF>
  </metadata>
  <defs
     id="defs2906">
    <inkscape:perspective
       sodipodi:type="inkscape:persp3d"
       inkscape:vp_x="0 : 59.849998 : 1"
       inkscape:vp_y="0 : 1000 : 0"
       inkscape:vp_z="74.699997 : 59.849998 : 1"
       inkscape:persp3d-origin="37.349998 : 39.899999 : 1"
       id="perspective2910" />
    <inkscape:perspective
       id="perspective2907"
       inkscape:persp3d-origin="0.5 : 0.33333333 : 1"
       inkscape:vp_z="1 : 0.5 : 1"
       inkscape:vp_y="0 : 1000 : 0"
       inkscape:vp_x="0 : 0.5 : 1"
       sodipodi:type="inkscape:persp3d" />
  </defs>
  <sodipodi:namedview
     pagecolor="#ffffff"
     bordercolor="#666666"
     borderopacity="1"
     objecttolerance="10"
     gridtolerance="10"
     guidetolerance="10"
     inkscape:pageopacity="0"
     inkscape:pageshadow="2"
     inkscape:window-width="640"
     inkscape:window-height="659"
     id="namedview2904"
     showgrid="false"
     inkscape:zoom="2"
     inkscape:cx="14.904404"
     inkscape:cy="115.45864"
     inkscape:window-x="524"
     inkscape:window-y="139"
     inkscape:window-maximized="0"
     inkscape:current-layer="svg2" />
  <path
     d="m 21.454395,-45.501505 c -0.44032,0.245786 -0.770561,0.491593 -0.880641,0.860279 l -0.330242,0.491588 -0.110077,9.58597 0,9.585986 -4.293133,2.212146 -4.183053,2.212141 0,-8.72569 0,-8.848594 -0.220162,-0.614494 c -0.220163,-0.245783 -0.440323,-0.61447 -0.550403,-0.737372 -0.330242,-0.368688 -1.1008049,-0.737374 -1.6512055,-0.737374 -0.6604769,0 -1.5411216,0.614472 -1.8713755,1.228963 l -0.3302346,0.49159 -0.1101171,10.200459 0,10.200462 -2.5318368,1.351868 c -1.3209769,0.614492 -2.5318563,1.351867 -2.7520128,1.474769 -0.1101171,0.1228 -0.3302539,0.614491 -0.5504103,0.860276 l -0.2201563,0.49159 -0.1101171,4.0555986 c 0,2.5808515 0,4.1785026 0.1101171,4.5472112 0.1101171,0.6144693 0.6604885,1.3518652 1.3209576,1.8434343 0.440332,0.2458057 0.6604886,0.2458057 1.320977,0.2458057 0.7705472,0 0.8806448,0 2.0915241,-0.6144931 l 1.3209575,-0.7373748 0,9.4630862 0,9.3401649 -2.5318368,1.351886 c -1.3209769,0.61447 -2.5318563,1.351866 -2.7520128,1.474748 -0.1101171,0.122806 -0.3302539,0.614491 -0.5504103,0.860298 L 0.8693351,18.404991 0.759218,22.460608 c 0,2.580829 0,4.178502 0.1101171,4.547189 0.1101171,0.614493 0.6604885,1.351866 1.3209576,1.843457 0.440332,0.245806 0.6604886,0.245806 1.320977,0.245806 0.7705472,0 0.8806448,0 2.0915241,-0.614493 l 1.3209575,-0.737393 0,8.234121 0,8.111198 0.2201565,0.614493 c 0.2201756,0.368686 0.440332,0.737374 0.5504102,0.860275 0.3302345,0.368686 1.1008012,0.737396 1.6512037,0.737396 0.6604823,0 1.5411253,-0.614493 1.8713663,-1.228985 l 0.440322,-0.491591 0,-9.70887 0.110078,-9.585967 4.183052,-2.212163 4.183053,-2.212144 0,8.848592 0,8.725692 0.220162,0.614493 c 0.22016,0.368686 0.44032,0.737395 0.550402,0.860276 0.33024,0.368689 1.100803,0.737395 1.651203,0.737395 0.660483,0 1.541127,-0.614492 1.871367,-1.228985 l 0.440321,-0.491588 0,-10.323342 0.110077,-10.200479 2.421768,-1.351866 c 1.320964,-0.614472 2.531847,-1.351866 2.752009,-1.474748 0.110076,-0.122806 0.330241,-0.614493 0.550401,-0.860298 l 0.330242,-0.614472 0,-3.932717 c 0,-2.5808311 0,-4.1785024 -0.110077,-4.5471889 C 30.811191,5.0092079 30.260787,4.2718347 29.600303,3.7802448 29.159983,3.53444 28.939822,3.53444 28.27934,3.53444 c -0.770563,0 -0.880643,0 -2.091528,0.6144914 l -1.320964,0.7373947 0,-9.4630862 0.110077,-9.3401819 2.421768,-1.351866 c 1.320964,-0.614494 2.531847,-1.351867 2.752009,-1.474769 0.110076,-0.122801 0.330241,-0.614493 0.550401,-0.860277 l 0.330242,-0.614493 0,-3.932696 c 0,-2.580853 0,-4.178504 -0.110077,-4.547213 -0.110077,-0.614471 -0.660481,-1.351866 -1.320965,-1.843454 -0.44032,-0.245786 -0.660481,-0.245786 -1.320963,-0.245786 -0.770563,0 -0.880643,0 -2.091528,0.614492 l -1.320964,0.737375 0,-8.111219 0,-8.234102 -0.22016,-0.614491 c -0.330241,-0.614471 -0.550401,-0.860278 -1.210885,-1.228964 -0.66048,-0.368687 -1.320963,-0.368687 -1.981446,0.122801 M 20.023313,7.34416 C 19.913237,7.4669663 18.041867,8.450243 15.73018,9.5563045 l -4.072972,2.2121645 0,-9.463086 0.110079,-9.340183 4.183051,-2.2121442 4.183054,-2.2121428 0,9.3401843 c 0,7.4967067 0,9.4630627 -0.110077,9.4630627"
     id="path2902" />
</svg>
