<?xml version="1.0" encoding="UTF-8" standalone="no"?>
<!-- Created with Inkscape (http://www.inkscape.org/) -->

<svg
   xmlns:svg="http://www.w3.org/2000/svg"
   xmlns="http://www.w3.org/2000/svg"
   version="1.0"
   width="260"
   height="104"
   id="svg2440">
  <defs
     id="defs2966" />
  <path
     d="m 20.486334,-14.458874 c -11.3206787,0 -20.47650071,6.4914681 -20.47650071,14.53764985 0,8.04618085 9.15582201,14.58030915 20.47650071,14.58030915 11.320702,0 20.512108,-6.5341283 20.512108,-14.58030915 0,-8.04618175 -9.191406,-14.53764985 -20.512108,-14.53764985 z m -2.77766,2.515306 c 3.362397,-0.127191 7.452137,3.1819641 10.042364,8.5264638 3.18794,6.5779195 2.893752,13.7258822 -0.676623,15.9445222 -3.5704,2.218727 -9.062335,-1.309067 -12.250301,-7.8869869 -3.18794,-6.5778614 -2.893753,-13.725853 0.676623,-15.9445221 0.669467,-0.41596 1.431983,-0.610089 2.207937,-0.639477 z"
     id="note1"
     style="fill:#000000;stroke:none" />
</svg>
